<svg width="978" height="1047" viewBox="0 0 978 1047" fill="white" xmlns="http://www.w3.org/2000/svg">
    <g filter="url(#filter0_d)">
      <path d="M849.999 704.332L846.9 722L831.5 709.5C831.5 709.5 777 665 751.5 644C713.151 612.419 658 567.5 634 546.5C610 525.5 554.699 473 528.5 377C502.301 281 485 9 485 9L511.499 9.00013L526.999 9.00013L534.999 9.00007L543.999 9.00007L560.499 9.00002L580.499 9.00002L620 8.99998L667.499 8.99998L768.999 8.99998L964.999 8.99998L928.999 225L904.999 370.5L899.999 403.5L893.5 443L890 464L888.499 472L886.499 483L879.999 524.5L863.999 620L861.999 633L858.999 650.5L855.499 671L852.999 686L849.999 704.332Z"/>
      <path d="M1.0001 108.5L0.999625 8.99973L139.999 8.99971H234.499L261.499 8.99976L291.499 8.99979L320.499 8.99973L335.999 8.9997L352.499 8.99974L359.999 8.9998L372.999 8.99982L391.499 8.99979L407.999 8.99983L427.499 8.99986L445.499 8.99969L456.999 8.99991L469.999 8.99993L486 8.99969C486 8.99969 503.984 286.5 529 375.5C554.016 464.5 601.5 515.5 631.5 542.5C661.5 569.5 847 721.5 847 721.5L844 740L823.5 862L793.5 1046.5H545.996H472.996H419.996H370.996H297.677H87.4971H0.996094L0.996525 726.5L0.997749 645L0.998444 593L0.996658 517.5L0.996525 328.5L1.0001 108.5Z"/>
    </g>
    <defs>
      <filter id="filter0_d" filterUnits="userSpaceOnUse" color-interpolation-filters="sRGB">
        <feFlood flood-opacity="0" result="BackgroundImageFix"/>
        <feColorMatrix in="SourceAlpha" type="matrix" values="0 0 0 0 0 0 0 0 0 0 0 0 0 0 0 0 0 0 127 0"/>
        <feOffset/>
        <feGaussianBlur stdDeviation="7.5"/>
        <feColorMatrix type="matrix" values="0 0 0 0 0 0 0 0 0 0 0 0 0 0 0 0 0 0 0.1 0"/>
        <feBlend mode="normal" in2="BackgroundImageFix" result="effect1_dropShadow"/>
        <feBlend mode="normal" in="SourceGraphic" in2="effect1_dropShadow" result="shape"/>
      </filter>
    </defs>
  </svg>