<svg width="931" height="757" viewBox="0 0 931 757" fill="none" xmlns="http://www.w3.org/2000/svg">
  <path d="M906.811 709C891.423 713.033 894.349 717.87 875.504 709C861.764 702.534 810.219 638.17 797.503 627C723.775 562.232 786.473 619.309 700.003 545.851C638.766 498.669 595.293 445.096 563.399 423.5C453.306 330.947 349.503 35.3707 349.503 35.3707C343.799 25.8303 354.654 32.6834 360.003 35.3705C369.526 40.1663 364.25 35.5233 373.003 35.3706C380.936 35.2322 373.879 35.6956 392.504 35.3707C407.564 35.1079 411.209 47.1355 411.004 35.3707C410.765 21.7311 438.166 34.527 437.004 24.4676C433.401 9.51115 468.936 43.3865 473.833 35.3705C502.429 -11.497 510.595 42.7059 529.963 24.4673C532.433 22.1161 541.237 6.6882 563.399 7.08178C584.203 7.44943 649.165 4.54348 649.008 24.4676C648.541 84.0809 669.151 7.32353 683.008 7.08178C714.891 6.52555 715.989 7.76252 755.008 7.08178C786.442 6.53337 784.981 7.248 794.508 7.08178C820.682 6.62515 831.785 -6.06962 832.508 35.3707C832.622 41.8859 849.767 12.5351 861.929 16.0889C882.3 22.042 897.344 -2.26748 897.811 24.4676C897.932 31.3729 910.002 114.972 906.811 125.65C904.938 131.734 911.494 256.542 906.811 264.5C900.853 273.588 898.088 319.654 906.811 320.5C942.136 320.5 912.537 381.36 906.811 401.5C894.197 445.864 900.769 447.819 906.811 496C909.328 510.51 903.532 508.299 906.811 520C910.558 535.447 907.931 509.809 906.811 545.851C916.523 572.589 895.111 572.962 916.523 572.589C926.678 572.411 916.133 579.651 916.523 602C916.913 624.349 926.874 702.316 906.811 709Z" fill="#640000"/>
  <path d="M22.0001 243.5C25.0262 226.259 6.53909 7.04015 22.0001 21C29.663 27.9166 43.6979 13.9773 54.0001 21C61.0177 26.1494 64.5721 26.8715 77.0001 25C80.8581 25.1351 100.755 16.4804 99.5001 25C98.8035 29.7388 114.288 18.5607 111 25C107.033 32.7669 116.634 24.0642 126 25C142.86 25.9358 130.677 31.5009 143.35 25C146.138 23.0566 151.686 35.2075 153.5 30C155.494 24.2878 168.073 36.8311 173.5 30C175.948 26.9206 192.166 33.9176 195 30C202.115 20.1854 205.338 43.7291 214 34C224.806 21.869 234.351 50.6481 234.5 38.5C234.699 28.3535 229.235 34.4688 247.5 34C257.217 33.3072 248.855 34.9358 261.5 34C273.676 33.5313 270.393 41.5281 279.5 38.5C287.567 35.8175 298.025 42.1901 302.67 38.5C307.369 34.7705 312.142 36.7338 318.124 34C329.005 29.0268 347.293 28.8181 351.5 34C363.089 48.2746 460.827 293.745 560.99 390.247C684.203 508.953 655.958 517.252 780.351 597.466C879.186 650.023 892.765 747.433 862 710C829.899 672.3 799.088 689.199 771 740C745.586 785.455 619.175 665.124 616.5 744C616.5 769.745 604.623 757.845 408 691C367.969 674.895 373.446 693.092 321.5 691C294.381 689.907 263.538 705.415 232 700.5C220.474 698.704 203.222 693.232 189 694.5C169.767 696.211 173.499 678.549 158 687C142.091 695.677 139.121 685.201 122.5 676.5C113.795 670.962 81.9595 679.828 87.5 673.5C114.41 648.988 77.2412 684.226 43.9999 651C-27.9769 591.621 8.70414 541.055 16.5005 473.5C18.0205 460.327 25.9419 441.852 22.0001 424C17.9367 405.601 28.4512 386.696 22.0001 368.5C15.8212 351.095 20.9252 329.197 22.0001 313C24.9304 268.768 20.5949 265.967 22.0001 243.5Z" fill="#640000"/>
</svg>
