<svg width="647" height="484" viewBox="0 0 647 484" fill="none" xmlns="http://www.w3.org/2000/svg">
  <path d="M615.92 445.095C605.612 447.797 602.559 430.951 589.935 425.009C580.73 420.678 572.468 424.814 563.949 417.331C514.557 373.942 546.607 415.491 488.68 366.281C447.656 334.672 424.219 291.268 402.853 276.801C329.1 214.798 273.864 91.6324 273.864 91.6324C270.042 85.2411 272.138 83.3923 275.722 85.1925C282.101 88.4053 285.297 99.5391 291.161 99.4368C296.475 99.3441 286.861 84.9981 299.338 84.7805C309.426 84.6044 307.847 79.5301 307.709 71.6486C307.55 62.5113 315.792 53.1196 315.014 46.3807C312.6 36.361 304.429 29.6708 307.709 24.3008C326.867 -7.09661 332.337 29.2149 345.312 16.9966C346.967 15.4214 352.864 5.086 367.711 5.34967C381.648 5.59596 399.178 9.01885 399.073 22.3664C398.76 62.3023 445.346 116.396 454.629 116.234C475.987 115.861 454.32 78.8522 480.459 78.3962C501.518 78.0288 497.728 83.8146 504.11 83.7033C521.644 83.3974 513.289 88.472 513.773 116.234C513.85 120.598 641 121.5 641 121.5L635 156.5L631.5 178.5C631.5 178.5 562.367 177.765 559.23 183.096C555.239 189.185 560.289 193.818 566.133 194.384C589.797 194.384 578.753 213.819 574.918 227.311C566.467 257.031 556.32 296.946 560.368 329.224C562.054 338.944 549.504 335.809 551.701 343.648C554.211 353.996 575.667 336.436 574.917 360.581C575.039 379.081 589.93 384.443 604.275 384.192C611.078 384.074 620.143 383.55 620.404 398.522C620.665 413.494 629.361 440.618 615.92 445.095Z" fill="#005264" fill-opacity="0.45"/>
  <path d="M39.6803 161.145C41.7076 149.595 44.3816 143.013 54.7392 152.365C59.8727 156.999 65.552 160.883 72.4536 165.587C77.1548 169.037 79.0422 180.69 87.368 179.436C89.9525 179.527 95.7384 179.322 94.8979 185.029C94.4313 188.204 94.2157 187.369 92.013 191.683C89.3551 196.886 94.9656 199.73 101.24 200.357C112.534 200.983 113.703 200.93 122.193 196.575C124.06 195.273 120.977 190.028 122.193 186.54C123.528 182.713 129.15 183.59 132.786 179.013C134.426 176.95 133.784 169.719 135.683 167.094C140.449 160.519 151.214 167.652 157.017 161.135C164.256 153.008 163.506 143.246 163.606 135.107C163.739 128.31 167.684 120.997 179.92 120.683C186.43 120.219 190.273 121.31 198.745 120.683C206.902 120.369 214.605 112.677 220.706 110.648C226.11 108.851 235.791 110.297 238.903 107.825C242.051 105.327 238.347 98.9181 242.355 97.0867C249.644 93.755 261.452 93.6152 264.27 97.0867C272.034 106.649 304.696 195.44 371.798 260.089C454.34 339.612 435.418 345.171 518.751 398.908C584.963 434.117 543.841 443.689 523.231 418.612C501.726 393.356 462.299 392.639 443.482 426.672C426.457 457.123 394.198 415.925 392.406 468.766C392.406 486.013 395.991 497.425 264.269 452.645C237.452 441.856 243.897 481.132 209.098 479.73C190.93 478.998 170.123 450.78 148.995 447.488C141.274 446.284 130.952 459.36 121.424 460.209C108.54 461.355 96.2831 451.367 85.9002 457.029C75.2422 462.842 65.7526 480.347 54.6176 474.518C48.7858 470.808 57.2687 464.449 60.9803 460.209C79.0078 443.788 40.8316 401.922 18.5627 379.664C-29.6558 339.885 30.693 360.681 35.9159 315.425C36.9341 306.601 40.1252 291.322 37.4845 279.363C34.7624 267.037 19.8504 257.373 15.5287 245.184C11.3893 233.524 17.8483 219.346 18.5684 208.495C20.5315 178.863 38.739 176.196 39.6803 161.145Z" fill="#005264" fill-opacity="0.45"/>
</svg>
