<svg xmlns="http://www.w3.org/2000/svg" width="32.172" height="32.179" viewBox="0 0 32.172 32.179">
  <path id="audio-waves" d="M18.479,32.18a3.667,3.667,0,0,1-3.01-1.563,3.718,3.718,0,0,1-.7-2.181V3.642a.865.865,0,0,0-.087-.378l-.043-.089a1.131,1.131,0,0,0-1.327-.624,1.15,1.15,0,0,0-.93,1.167V22.19a3.707,3.707,0,0,1-7.415,0V10.978a1.225,1.225,0,0,0-2.1-.861,1.218,1.218,0,0,0-.354.861v9.264a1.257,1.257,0,1,1-2.513,0V10.978A3.717,3.717,0,0,1,1.079,8.351a3.679,3.679,0,0,1,4.08-.832,3.679,3.679,0,0,1,2.319,3.458V22.189a1.188,1.188,0,0,0,.339.833,1.194,1.194,0,0,0,2.049-.833V3.719A3.65,3.65,0,0,1,12.745.1,3.63,3.63,0,0,1,16.9,2.074l.043.089a3.4,3.4,0,0,1,.341,1.479V28.437a1.219,1.219,0,0,0,.23.715,1.156,1.156,0,0,0,1,.515,1.221,1.221,0,0,0,1.222-1.23V26.651a1.257,1.257,0,0,1,2.513,0v1.786a3.735,3.735,0,0,1-3.679,3.742h-.087ZM28.466,25.9a3.661,3.661,0,0,0,3.276-2,3.756,3.756,0,0,0,.431-1.742V13.2a1.257,1.257,0,0,0-2.513,0v8.95a1.23,1.23,0,0,1-.141.571,1.14,1.14,0,0,1-1.054.658h0a1.326,1.326,0,0,1-.883-.333,1.157,1.157,0,0,1-.371-.9V10.977a3.739,3.739,0,1,0-7.478,0v9.39a1.257,1.257,0,0,0,2.513,0v-9.39a1.22,1.22,0,0,1,.57-1.036A1.225,1.225,0,0,1,24.7,10.977V22.154a3.67,3.67,0,0,0,1.2,2.758,3.868,3.868,0,0,0,2.572.985Zm0,0" transform="translate(0 -0.002)" fill="#222934"/>
</svg>
