<svg xmlns="http://www.w3.org/2000/svg" xmlns:xlink="http://www.w3.org/1999/xlink" width="30" height="30" viewBox="0 0 30 30">
  <defs>
    <clipPath id="clip-path">
      <rect id="Rectangle_343" data-name="Rectangle 343" width="30" height="30" transform="translate(-0.866 -0.896)" fill="#222934"/>
    </clipPath>
  </defs>
  <g id="Frame_4_" data-name="Frame (4)" transform="translate(0.866 0.896)" clip-path="url(#clip-path)">
    <path id="Path_728" data-name="Path 728" d="M128.9,223.124a.92.92,0,0,1-.65-1.57l3.333-3.333-3.334-3.334a.92.92,0,0,1,1.3-1.3l3.983,3.984a.919.919,0,0,1,0,1.3l-3.983,3.984a.912.912,0,0,1-.65.27Z" transform="translate(-120.941 -201.374)" fill="#222934"/>
    <path id="Path_729" data-name="Path 729" d="M262.435,353.839h-5.516a.919.919,0,0,1,0-1.839h5.516a.919.919,0,0,1,0,1.839Z" transform="translate(-241.602 -332.088)" fill="#222934"/>
    <path id="Path_730" data-name="Path 730" d="M26.046,48.3H3.371A3.373,3.373,0,0,1,0,44.928V24.7a3.373,3.373,0,0,1,3.371-3.371H26.046A3.373,3.373,0,0,1,29.416,24.7V44.928A3.373,3.373,0,0,1,26.046,48.3ZM3.371,23.172A1.534,1.534,0,0,0,1.839,24.7V44.928A1.534,1.534,0,0,0,3.371,46.46H26.046a1.534,1.534,0,0,0,1.532-1.532V24.7a1.534,1.534,0,0,0-1.532-1.532Z" transform="translate(-0.311 -20.42)" fill="#222934"/>
    <path id="Path_731" data-name="Path 731" d="M28.5,97.839H.919A.919.919,0,1,1,.919,96H28.5a.919.919,0,1,1,0,1.839Z" transform="translate(-0.311 -90.796)" fill="#222934"/>
  </g>
</svg>
