<svg id="graph" xmlns="http://www.w3.org/2000/svg" width="468" height="468" viewBox="0 0 468 468">
  <g id="Group_403" data-name="Group 403">
    <path id="Path_526" data-name="Path 526" d="M122.738,246c66.945,0,122.738-55.968,122.738-123,0-67.822-55.06-123-122.738-123S0,55.178,0,123C0,190.041,55.788,246,122.738,246ZM70.492,199.878l51.226-54.026,46.222,58.409a92.8,92.8,0,0,1-97.448-4.383ZM191.381,185.6,153.712,138h60.631a92.365,92.365,0,0,1-22.962,47.6ZM214.333,108H137.706V31.209A93.131,93.131,0,0,1,214.333,108ZM107.77,31.209v85.8L48.782,179.223A93.112,93.112,0,0,1,107.77,31.209Z"/>
    <path id="Path_527" data-name="Path 527" d="M321.642,438V232.546a14.985,14.985,0,0,0-14.968-15H242.221a14.984,14.984,0,0,0-14.968,15V438H80.9v30H468V438ZM257.189,247.546h34.517V438H257.189Z"/>
  </g>
  <g id="Group_404" data-name="Group 404">
    <path id="Path_528" data-name="Path 528" d="M207.15,413H177.214V312.492H142.7v56.139H112.761V297.492a14.984,14.984,0,0,1,14.968-15h64.453a14.984,14.984,0,0,1,14.968,15Z"/>
  </g>
  <g id="Group_405" data-name="Group 405">
    <path id="Path_529" data-name="Path 529" d="M112.761,388.631H142.7V413H112.761Z"/>
  </g>
  <g id="Group_406" data-name="Group 406">
    <path id="Path_530" data-name="Path 530" d="M437.214,413H407.278V182.6H372.761V368.632H342.825V167.6a14.985,14.985,0,0,1,14.968-15h64.453a14.984,14.984,0,0,1,14.968,15Z"/>
  </g>
  <g id="Group_407" data-name="Group 407">
    <path id="Path_531" data-name="Path 531" d="M342.826,388.631h29.936V413H342.826Z"/>
  </g>
</svg>
