<svg xmlns="http://www.w3.org/2000/svg" width="31.411" height="34.013" viewBox="0 0 31.411 34.013">
  <g id="motion-sensor" transform="translate(-19.579)">
    <g id="Group_492" data-name="Group 492" transform="translate(22.33)">
      <path id="Path_715" data-name="Path 715" d="M81.926,1.993a1,1,0,1,0,0-1.993H65.982a1,1,0,0,0,0,1.993h6.975V3.986H63.989A2.993,2.993,0,0,0,61,6.975v4.119a2.993,2.993,0,0,0,2.989,2.989H83.919a2.993,2.993,0,0,0,2.989-2.989V6.975a2.993,2.993,0,0,0-2.989-2.989H74.951V1.993Zm2.989,4.982v4.119a1,1,0,0,1-1,1H63.989a1,1,0,0,1-1-1V6.975a1,1,0,0,1,1-1H83.919A1,1,0,0,1,84.915,6.975Z" transform="translate(-61)" fill="#222934"/>
    </g>
    <g id="Group_493" data-name="Group 493" transform="translate(30.302 7.972)">
      <path id="Path_716" data-name="Path 716" d="M182,120a1.055,1.055,0,0,0-1,1.063,1,1,0,1,0,1.993,0A1.055,1.055,0,0,0,182,120Z" transform="translate(-181 -120)" fill="#222934"/>
    </g>
    <g id="Group_494" data-name="Group 494" transform="translate(34.288 7.972)">
      <path id="Path_717" data-name="Path 717" d="M241,121.063a1,1,0,1,0,1.993,0,1,1,0,1,0-1.993,0Z" transform="translate(-241 -120)" fill="#222934"/>
    </g>
    <g id="Group_495" data-name="Group 495" transform="translate(38.274 7.972)">
      <path id="Path_718" data-name="Path 718" d="M302,122.059a1,1,0,0,0,1-1,1,1,0,1,0-1.993,0A1,1,0,0,0,302,122.059Z" transform="translate(-301 -120)" fill="#222934"/>
    </g>
    <g id="Group_496" data-name="Group 496" transform="translate(19.579 25.524)">
      <path id="Path_719" data-name="Path 719" d="M50.729,385.884a1,1,0,0,0-1.471-1.345,18.905,18.905,0,0,1-27.947,0,1,1,0,0,0-1.471,1.345,20.9,20.9,0,0,0,30.889,0Z" transform="translate(-19.579 -384.215)" fill="#222934"/>
    </g>
    <g id="Group_497" data-name="Group 497" transform="translate(22.736 23.068)">
      <path id="Path_720" data-name="Path 720" d="M68.826,347.559a1,1,0,0,0-1.444,1.373,16.916,16.916,0,0,0,24.548,0,1,1,0,0,0-1.444-1.373,14.923,14.923,0,0,1-21.659,0Z" transform="translate(-67.107 -347.249)" fill="#222934"/>
    </g>
    <g id="Group_498" data-name="Group 498" transform="translate(25.901 20.606)">
      <path id="Path_721" data-name="Path 721" d="M115.041,310.488a1,1,0,0,0,.011,1.409,12.935,12.935,0,0,0,18.172,0,1,1,0,0,0-1.4-1.42,10.942,10.942,0,0,1-15.375,0A1,1,0,0,0,115.041,310.488Z" transform="translate(-114.755 -310.191)" fill="#222934"/>
    </g>
    <g id="Group_499" data-name="Group 499" transform="translate(29.088 18.128)">
      <path id="Path_722" data-name="Path 722" d="M162.963,273.228a1,1,0,0,0,.1,1.405,8.954,8.954,0,0,0,11.7,0,1,1,0,1,0-1.3-1.509,6.961,6.961,0,0,1-9.1,0A1,1,0,0,0,162.963,273.228Z" transform="translate(-162.722 -272.882)" fill="#222934"/>
    </g>
    <g id="Group_500" data-name="Group 500" transform="translate(32.363 15.58)">
      <path id="Path_723" data-name="Path 723" d="M214.947,237.02a4.981,4.981,0,0,0,2.407-.621,1,1,0,0,0-.965-1.744,2.985,2.985,0,0,1-2.884,0,1,1,0,0,0-.965,1.744A4.981,4.981,0,0,0,214.947,237.02Z" transform="translate(-212.026 -234.531)" fill="#222934"/>
    </g>
  </g>
</svg>
