<svg xmlns="http://www.w3.org/2000/svg" width="480.466" height="511.927" viewBox="0 0 480.466 511.927">
  <g id="social-media" transform="translate(-15.731)">
    <path id="Path_840" data-name="Path 840" d="M439.973,0h-22.01c-9.675,0-9.675,15,0,15h22.01A41.2,41.2,0,0,1,481.2,56.074V229.646a41.2,41.2,0,0,1-41.223,41.075H415.01a7.5,7.5,0,0,0-4.557,1.543L364.647,307.3V278.221a7.5,7.5,0,0,0-7.5-7.5h-91.28A41.018,41.018,0,0,1,244.872,265V180.805a45.763,45.763,0,0,0-20.229-37.946V56.074A41.2,41.2,0,0,1,265.867,15h105.1c9.674,0,9.674-15,0-15h-105.1a56.213,56.213,0,0,0-56.224,56.074v80.193A45.981,45.981,0,0,0,198.949,135H61.653a45.916,45.916,0,0,0-45.922,45.8V197c0,9.674,15,9.674,15,0V180.8A30.9,30.9,0,0,1,61.653,150h137.3a30.9,30.9,0,0,1,30.923,30.8v87.178a7.5,7.5,0,0,0,0,1.986v47.712c0,.943-.057,1.882-.142,2.816H214.264a34.794,34.794,0,0,0-34.2,28.468,7.518,7.518,0,0,0-1.944,1.084l-33.545,25.9V355.986a7.5,7.5,0,0,0-7.5-7.5H61.653a30.9,30.9,0,0,1-30.922-30.8V242c0-9.674-15-9.674-15,0v75.682a45.916,45.916,0,0,0,45.922,45.8h67.926v27.73a7.614,7.614,0,0,0,12.084,5.937L179.5,367.941v84.375A34.764,34.764,0,0,0,214.265,487H260.29v17.5c0,6.014,7.3,9.627,12.083,5.937L302.729,487H311.7a34.765,34.765,0,0,0,34.767-34.683V439c0-9.674-15-9.674-15,0v13.316A19.747,19.747,0,0,1,311.7,472H300.17a7.5,7.5,0,0,0-4.583,1.563l-20.3,15.671V479.5a7.5,7.5,0,0,0-7.5-7.5H214.264A19.748,19.748,0,0,1,194.5,452.315V355.181A19.747,19.747,0,0,1,214.264,335.5H311.7a19.748,19.748,0,0,1,19.767,19.683V392c0,9.674,15,9.674,15,0V355.182A34.764,34.764,0,0,0,311.7,320.5h-66.91c.057-.937.086-38.818.086-38.818a56.135,56.135,0,0,0,20.995,4.041h83.78v36.76a7.614,7.614,0,0,0,12.057,5.957l55.846-42.717h22.423A56.213,56.213,0,0,0,496.2,229.647V56.074A56.214,56.214,0,0,0,439.973,0Z"/>
    <path id="Path_841" data-name="Path 841" d="M371.66,55.412a15.631,15.631,0,0,0-19.227,14.933,44.063,44.063,0,0,1-11.027,29.169L320.742,122.9a7.487,7.487,0,0,0-6.283-3.412h-40.34a7.5,7.5,0,0,0-7.5,7.5V217.75a7.5,7.5,0,0,0,7.5,7.5h40.34a7.5,7.5,0,0,0,6.818-4.387,52.4,52.4,0,0,0,27.26,7.688h71.292a19.629,19.629,0,0,0,19.37-20.319c-.227-4.812.021-69.425.021-70.86a19.409,19.409,0,0,0-19.369-19.392l-37.073-.111,1.535-3.635A58.561,58.561,0,0,0,381.227,62.7a15.283,15.283,0,0,0-9.567-7.288c-4.082-1.042,4.08,1.043,0,0-9.522-2.431,4.08,1.043,0,0Zm-64.7,154.838h-25.34V134.485h25.34Zm112.87-77.271a4.4,4.4,0,0,1,4.392,4.392c0,1.427-.015,5.3-.035,10.551-.111,28.992-.185,56.45.029,61.014a4.391,4.391,0,0,1-4.386,4.614H348.537a37.342,37.342,0,0,1-23.421-8.292l-3.157-2.556V144.171l30.691-34.729a59.054,59.054,0,0,0,14.783-39.1.418.418,0,0,1,.771-.2,43.473,43.473,0,0,1,2.291,38.257l-5.919,14.019a7.5,7.5,0,0,0,6.886,10.418Z"/>
    <path id="Path_842" data-name="Path 842" d="M79.951,260.5a7.5,7.5,0,0,0,0,15h22.108l-4.13,24.979a7.5,7.5,0,1,0,14.8,2.447l4.534-27.425h18.093l-4.13,24.979a7.5,7.5,0,1,0,14.8,2.447l4.534-27.425h30.093a7.5,7.5,0,0,0,0-15H153.038l3.025-18.3h24.588a7.5,7.5,0,0,0,0-15H158.543l4.13-24.979a7.5,7.5,0,0,0-14.8-2.447L143.34,227.2H125.247l4.13-24.979a7.5,7.5,0,0,0-14.8-2.447L110.044,227.2H79.951a7.5,7.5,0,1,0,0,15h27.613l-3.025,18.3Zm42.817-18.3h18.093l-3.025,18.3H119.743Z"/>
    <path id="Path_843" data-name="Path 843" d="M262.89,374.2a25.222,25.222,0,0,0-22.2-4.988c-10.357,2.515-20.808,12.2-20.808,28.156,0,9.933,3.625,18.555,11.082,26.359,6.091,6.375,14.881,12.437,28.5,19.657a7.5,7.5,0,0,0,7.026,0c23.758-12.6,39.58-25.24,39.58-46.016,0-16.046-10.822-25.629-21.548-28.008a25.151,25.151,0,0,0-21.636,4.84Zm28.183,23.168c0,11.206-7.433,19.493-28.093,30.866-20.66-11.374-28.094-19.661-28.094-30.866,0-8.338,4.828-12.482,9.347-13.58a11.246,11.246,0,0,1,2.642-.316,10.351,10.351,0,0,1,9.44,6.037,7.5,7.5,0,0,0,13.461-.268c2.427-5.2,7.531-6.117,11.5-5.236C286.013,385.05,291.073,389.113,291.073,397.364Z"/>
  </g>
</svg>
