<svg xmlns="http://www.w3.org/2000/svg" xmlns:xlink="http://www.w3.org/1999/xlink" width="2799.326" height="1449.107" viewBox="0 0 2799.326 1449.107">
  <defs>
    <filter id="Path_56" x="1102.144" y="15.84" width="1406.205" height="1219.279" filterUnits="userSpaceOnUse">
      <feOffset dx="3" dy="3" input="SourceAlpha"/>
      <feGaussianBlur stdDeviation="5" result="blur"/>
      <feFlood flood-opacity="0.412"/>
      <feComposite operator="in" in2="blur"/>
      <feComposite in="SourceGraphic"/>
    </filter>
    <filter id="Path_57" x="210.339" y="3.948" width="884.747" height="952.479" filterUnits="userSpaceOnUse">
      <feOffset dx="3" dy="3" input="SourceAlpha"/>
      <feGaussianBlur stdDeviation="5" result="blur-2"/>
      <feFlood flood-opacity="0.412"/>
      <feComposite operator="in" in2="blur-2"/>
      <feComposite in="SourceGraphic"/>
    </filter>
    <filter id="Path_58" x="887.732" y="777.108" width="435.367" height="557.503" filterUnits="userSpaceOnUse">
      <feOffset dx="3" dy="3" input="SourceAlpha"/>
      <feGaussianBlur stdDeviation="5" result="blur-3"/>
      <feFlood flood-opacity="0.412"/>
      <feComposite operator="in" in2="blur-3"/>
      <feComposite in="SourceGraphic"/>
    </filter>
    <filter id="Path_59" x="1516.839" y="65.757" width="1282.487" height="1062.439" filterUnits="userSpaceOnUse">
      <feOffset dx="3" dy="3" input="SourceAlpha"/>
      <feGaussianBlur stdDeviation="5" result="blur-4"/>
      <feFlood flood-opacity="0.412"/>
      <feComposite operator="in" in2="blur-4"/>
      <feComposite in="SourceGraphic"/>
    </filter>
    <filter id="Path_60" x="251.568" y="55.724" width="730.828" height="816.605" filterUnits="userSpaceOnUse">
      <feOffset dx="3" dy="3" input="SourceAlpha"/>
      <feGaussianBlur stdDeviation="5" result="blur-5"/>
      <feFlood flood-opacity="0.412"/>
      <feComposite operator="in" in2="blur-5"/>
      <feComposite in="SourceGraphic"/>
    </filter>
    <filter id="Path_61" x="846.238" y="778.054" width="589.3" height="671.052" filterUnits="userSpaceOnUse">
      <feOffset dx="3" dy="3" input="SourceAlpha"/>
      <feGaussianBlur stdDeviation="5" result="blur-6"/>
      <feFlood flood-opacity="0.412"/>
      <feComposite operator="in" in2="blur-6"/>
      <feComposite in="SourceGraphic"/>
    </filter>
    <filter id="Path_68" x="1108.633" y="192.506" width="517.333" height="614.73" filterUnits="userSpaceOnUse">
      <feOffset dx="3" dy="3" input="SourceAlpha"/>
      <feGaussianBlur stdDeviation="5" result="blur-7"/>
      <feFlood flood-opacity="0.412"/>
      <feComposite operator="in" in2="blur-7"/>
      <feComposite in="SourceGraphic"/>
    </filter>
    <filter id="Path_62" x="1653.174" y="150.534" width="1036.245" height="961.83" filterUnits="userSpaceOnUse">
      <feOffset dx="3" dy="3" input="SourceAlpha"/>
      <feGaussianBlur stdDeviation="5" result="blur-8"/>
      <feFlood flood-opacity="0.412"/>
      <feComposite operator="in" in2="blur-8"/>
      <feComposite in="SourceGraphic"/>
    </filter>
    <filter id="Path_63" x="972.406" y="875.456" width="342.733" height="338.218" filterUnits="userSpaceOnUse">
      <feOffset dx="3" dy="3" input="SourceAlpha"/>
      <feGaussianBlur stdDeviation="5" result="blur-9"/>
      <feFlood flood-opacity="0.412"/>
      <feComposite operator="in" in2="blur-9"/>
      <feComposite in="SourceGraphic"/>
    </filter>
    <filter id="Path_64" x="149.135" y="0" width="822.173" height="864.678" filterUnits="userSpaceOnUse">
      <feOffset dx="3" dy="3" input="SourceAlpha"/>
      <feGaussianBlur stdDeviation="5" result="blur-10"/>
      <feFlood flood-opacity="0.412"/>
      <feComposite operator="in" in2="blur-10"/>
      <feComposite in="SourceGraphic"/>
    </filter>
    <filter id="Path_69" x="1155.36" y="242.307" width="401.434" height="494.261" filterUnits="userSpaceOnUse">
      <feOffset dx="3" dy="3" input="SourceAlpha"/>
      <feGaussianBlur stdDeviation="5" result="blur-11"/>
      <feFlood flood-opacity="0.412"/>
      <feComposite operator="in" in2="blur-11"/>
      <feComposite in="SourceGraphic"/>
    </filter>
    <filter id="Path_65" x="1724.568" y="263.942" width="903.048" height="764.479" filterUnits="userSpaceOnUse">
      <feOffset dx="3" dy="3" input="SourceAlpha"/>
      <feGaussianBlur stdDeviation="5" result="blur-12"/>
      <feFlood flood-opacity="0.412"/>
      <feComposite operator="in" in2="blur-12"/>
      <feComposite in="SourceGraphic"/>
    </filter>
    <filter id="Path_66" x="994.171" y="946.845" width="300.109" height="308.956" filterUnits="userSpaceOnUse">
      <feOffset dx="3" dy="3" input="SourceAlpha"/>
      <feGaussianBlur stdDeviation="5" result="blur-13"/>
      <feFlood flood-opacity="0.412"/>
      <feComposite operator="in" in2="blur-13"/>
      <feComposite in="SourceGraphic"/>
    </filter>
    <filter id="Path_67" x="0" y="46.464" width="845.212" height="708.756" filterUnits="userSpaceOnUse">
      <feOffset dx="3" dy="3" input="SourceAlpha"/>
      <feGaussianBlur stdDeviation="5" result="blur-14"/>
      <feFlood flood-opacity="0.412"/>
      <feComposite operator="in" in2="blur-14"/>
      <feComposite in="SourceGraphic"/>
    </filter>
    <filter id="Path_70" x="1220.086" y="354.054" width="297.538" height="344.124" filterUnits="userSpaceOnUse">
      <feOffset dx="3" dy="3" input="SourceAlpha"/>
      <feGaussianBlur stdDeviation="5" result="blur-15"/>
      <feFlood flood-opacity="0.412"/>
      <feComposite operator="in" in2="blur-15"/>
      <feComposite in="SourceGraphic"/>
    </filter>
    <filter id="Path_72" x="1252.71" y="414.508" width="216.353" height="222.332" filterUnits="userSpaceOnUse">
      <feOffset dx="3" dy="3" input="SourceAlpha"/>
      <feGaussianBlur stdDeviation="5" result="blur-16"/>
      <feFlood flood-opacity="0.412"/>
      <feComposite operator="in" in2="blur-16"/>
      <feComposite in="SourceGraphic"/>
    </filter>
    <filter id="Path_71" x="1884.539" y="377.948" width="659.738" height="553.474" filterUnits="userSpaceOnUse">
      <feOffset dx="3" dy="3" input="SourceAlpha"/>
      <feGaussianBlur stdDeviation="5" result="blur-17"/>
      <feFlood flood-opacity="0.412"/>
      <feComposite operator="in" in2="blur-17"/>
      <feComposite in="SourceGraphic"/>
    </filter>
    <filter id="Path_73" x="1008.09" y="962.359" width="191.379" height="207.108" filterUnits="userSpaceOnUse">
      <feOffset dx="3" dy="3" input="SourceAlpha"/>
      <feGaussianBlur stdDeviation="5" result="blur-18"/>
      <feFlood flood-opacity="0.412"/>
      <feComposite operator="in" in2="blur-18"/>
      <feComposite in="SourceGraphic"/>
    </filter>
    <filter id="Path_74" x="42.059" y="87.848" width="704.858" height="598.863" filterUnits="userSpaceOnUse">
      <feOffset dx="3" dy="3" input="SourceAlpha"/>
      <feGaussianBlur stdDeviation="5" result="blur-19"/>
      <feFlood flood-opacity="0.412"/>
      <feComposite operator="in" in2="blur-19"/>
      <feComposite in="SourceGraphic"/>
    </filter>
  </defs>
  <g id="Group_158" data-name="Group 158" transform="translate(12 1.84)">
    <g id="Group_20" data-name="Group 20" transform="translate(210.339 -3)">
      <g transform="matrix(1, 0, 0, 1, -222.34, 1.16)" filter="url(#Path_56)">
        <path id="Path_56-2" data-name="Path 56" d="M1422.821,207.116C1484.195-11.32,606.857-171.28,342.22,0S4.627,285.927,74.826,565.479,549.833,775.432,846.7,1023.529s576.12-75.277,576.12-75.277S1361.448,425.552,1422.821,207.116Z" transform="translate(1064.46 99.95)" fill="#45505e"/>
      </g>
      <g transform="matrix(1, 0, 0, 1, -222.34, 1.16)" filter="url(#Path_57)">
        <path id="Path_57-2" data-name="Path 57" d="M818.168-345.959C617.537-558.106-109.954-414.468,66.21-111.074c99.884,172.023,56.771,519.094,180.738,532.143C349.71,298.733,363.743,525.976,589.639,465.109,692.552,437.38,783.914,332.6,769.234,141.753S1018.8-133.812,818.168-345.959Z" transform="translate(183.39 462.75)" fill="#45505e"/>
      </g>
      <g transform="matrix(1, 0, 0, 1, -222.34, 1.16)" filter="url(#Path_58)">
        <path id="Path_58-2" data-name="Path 58" d="M310.465,231.129C297.223,128.206,216.182,130.778,229.231,25.6c27.95-225.273-453.782-26.1-279,290.4s279,0,279,0S346.35,510.055,310.465,231.129Z" transform="translate(987.8 859.95)" fill="#45505e"/>
      </g>
    </g>
    <g id="Group_21" data-name="Group 21" transform="translate(251.568 65.884)">
      <g transform="matrix(1, 0, 0, 1, -263.57, -67.72)" filter="url(#Path_59)">
        <path id="Path_59-2" data-name="Path 59" d="M383.155-78.664C146.639-148.8-101.295,28.808-101.295,250.827c0,212.58,6.953,409.273,197.19,435.328C254.243,707.843,354.83,936.121,484.2,936.121c130.654,0,368.41,21.434,461.614-71.77,347.985-347.985,148.434-237.964,148.434-459.983,0-95.023,42.731-370.483-101.041-370.483C785.407,33.885,518.443-38.545,383.155-78.664Z" transform="translate(1630.13 171.95)" fill="#475365"/>
      </g>
      <g transform="matrix(1, 0, 0, 1, -263.57, -67.72)" filter="url(#Path_60)">
        <path id="Path_60-2" data-name="Path 60" d="M-8.454-47.656C228.062-117.8,500.463,2.909,500.463,141.557c0,212.58-156.59,153.125-156.59,411.049,0,324.8-352.9,58.305-508.917,135.385C-261.639,735.714-143.741-7.536-8.454-47.656Z" transform="translate(463.93 135.95)" fill="#475365"/>
      </g>
      <g transform="matrix(1, 0, 0, 1, -263.57, -67.72)" filter="url(#Path_61)">
        <path id="Path_61-2" data-name="Path 61" d="M524.093,322.816C279.668,500.269,0,439.193,0,300.545c0-69.751,172.7-36.382,172.7-191.163C172.7-215.417,659.381,282.7,524.093,322.816Z" transform="matrix(-0.26, 0.97, -0.97, -0.26, 1417.54, 901.92)" fill="#475365"/>
      </g>
      <g transform="matrix(1, 0, 0, 1, -263.57, -67.72)" filter="url(#Path_68)">
        <path id="Path_68-2" data-name="Path 68" d="M474.7,250.87C383.388,342.187,0,410.557,0,225.868,0,99.116,148.647,132.1,215.16,65.583,472.883-192.14,560.376,165.2,474.7,250.87Z" transform="matrix(-0.26, 0.97, -0.97, -0.26, 1582.56, 293.15)" fill="#475365"/>
      </g>
    </g>
    <g id="Group_22" data-name="Group 22" transform="translate(149.135 10.16)">
      <g transform="matrix(1, 0, 0, 1, -161.14, -12)" filter="url(#Path_62)">
        <path id="Path_62-2" data-name="Path 62" d="M93.869-82.084C-90.56-136.776-207.387,8.563-207.387,181.687c0,379.151,110.614,352.876,252.338,434.7,64.692,37.35,152.429,220.531,298.52,220.531,101.881,0,532.4,57.734,443.339-652.629C770.982,58.053,681.679,5.679,569.569,5.679,407.535,5.679,199.363-50.8,93.869-82.084Z" transform="translate(1872.56 256.32)" fill="#485a74"/>
      </g>
      <g transform="matrix(1, 0, 0, 1, -161.14, -12)" filter="url(#Path_63)">
        <path id="Path_63-2" data-name="Path 63" d="M293.794-125.252c-49.578-28.624-191.354,186.173-70.1,256.181C445.779,259.149,556.458,97.4,444.348,97.4,310.757,97.4,360.361-86.819,293.794-125.252Z" transform="translate(808.51 1015.32)" fill="#52637d"/>
      </g>
      <g transform="matrix(1, 0, 0, 1, -161.14, -12)" filter="url(#Path_64)">
        <path id="Path_64-2" data-name="Path 64" d="M339.408,468.89C930,644.031,514.148-111.273,473.669,39.8c0-165.764-571.2,239.874-459.088,239.874,34.558,59.855-3.221,231.983,89.517,256.832C219.791,547.765,266.421,449.333,339.408,468.89Z" transform="translate(161.14 577.98) rotate(-60)" fill="#52637d"/>
      </g>
      <g transform="matrix(1, 0, 0, 1, -161.14, -12)" filter="url(#Path_69)">
        <path id="Path_69-2" data-name="Path 69" d="M193.641,406.08c38.631-10.351,60.04-61.913,67.611-117.849,5.878-43.425-26.824-76.993-26.824-157.459C234.428-24.039,52.635-15.662,10.974,26c-50.98,50.98-16.782,165.959,49.683,232.424C104.236,302,152.815,417.02,193.641,406.08Z" transform="matrix(-0.97, -0.26, 0.26, -0.97, 1420.39, 715.06)" fill="#52637d"/>
      </g>
    </g>
    <g id="Group_23" data-name="Group 23" transform="translate(0 56.624)">
      <g transform="matrix(1, 0, 0, 1, -12, -58.46)" filter="url(#Path_65)">
        <path id="Path_65-2" data-name="Path 65" d="M471.879,81.428C234.712,148.99-137.051-46.746-214.688,61.189-324.945,214.473-64.4,394.589-5.508,476.323c54.046,75.012,1.8,152.365,169.639,252.338,81.351,48.455,318.291,61.975,397.279-77.977S698.24,16.944,471.879,81.428Z" transform="translate(1978.15 247.95)" fill="#415065"/>
      </g>
      <g transform="matrix(1, 0, 0, 1, -12, -58.46)" filter="url(#Path_66)">
        <path id="Path_66-2" data-name="Path 66" d="M310.305-96.191C234.151-172.345,138.156,39.489,259.414,109.5c222.083,128.219,264.785,0,152.675,0C278.5,109.5,364.221-42.275,310.305-96.191Z" transform="translate(804.42 1071.32)" fill="#51688b"/>
      </g>
      <g transform="matrix(1, 0, 0, 1, -12, -58.46)" filter="url(#Path_67)">
        <path id="Path_67-2" data-name="Path 67" d="M.044,510.992c-2.539,133.328,104.5,105.067,205.971,105.067,146.575,0,201.4,169.953,279.521,43.648C603.362,469.2,304.75,346.2,382.778,55,440.7-161.186.044,316.519.044,510.992Z" transform="matrix(0.26, -0.97, 0.97, 0.26, 12, 554.39)" fill="#51688b"/>
      </g>
      <g transform="matrix(1, 0, 0, 1, -12, -58.46)" filter="url(#Path_70)">
        <path id="Path_70-2" data-name="Path 70" d="M162.965,270.4c57.7,0,26.962-66.9,26.962-101.871C189.927,1.551,31.3-16.3,5.3,9.7-26.516,41.514,15,74.04,29.422,127.861,51.984,212.063,125.26,270.4,162.965,270.4Z" transform="matrix(-0.97, -0.26, 0.26, -0.97, 1423.44, 678.52)" fill="#51688b"/>
      </g>
    </g>
    <g id="Group_24" data-name="Group 24" transform="translate(42.059 98.008)">
      <g transform="matrix(1, 0, 0, 1, -54.06, -99.85)" filter="url(#Path_72)">
        <path id="Path_72-2" data-name="Path 72" d="M107.59,149.309c76.4,0-36.14-182.037-101.831-144.111-22.4,22.4-3.622,49.9,19.59,73.109C59.1,112.057,39.2,149.309,107.59,149.309Z" transform="matrix(-0.91, -0.41, 0.41, -0.91, 1386.41, 617.09)" fill="#5b79a4"/>
      </g>
      <g transform="matrix(1, 0, 0, 1, -54.06, -99.85)" filter="url(#Path_71)">
        <path id="Path_71-2" data-name="Path 71" d="M227.857,52.772c-216.776,0-106.476,50.083-238.632,50.083-133.807,0-242.933,92.675-198.975,153.686C-169.408,312.534-56.685,476.382,68.6,551.007c60.725,36.169,237.588,46.261,296.548-58.206S463.185,52.772,227.857,52.772Z" transform="translate(2116.17 337.18)" fill="#435772"/>
      </g>
      <g transform="matrix(1, 0, 0, 1, -54.06, -99.85)" filter="url(#Path_73)">
        <path id="Path_73-2" data-name="Path 73" d="M107.59,149.309C168.974,149.309,71.45-32.728,5.76,5.2c-22.4,22.4,26.162,46.426,49.374,69.637C69.53,89.232,69.407,149.309,107.59,149.309Z" transform="matrix(-0.97, -0.26, 0.26, -0.97, 1142.83, 1151.47)" fill="#5b79a4"/>
      </g>
      <g transform="matrix(1, 0, 0, 1, -54.06, -99.85)" filter="url(#Path_74)">
        <path id="Path_74-2" data-name="Path 74" d="M61.563,320.66C-32.875,539.234,98.687,484.4,219.024,517.612c85.161,23.506,145.039,99.7,198,46.738C492.5,459.421,274.745,242.2,234.433,186.245c-37-51.349-1.229-104.3-116.125-172.735C62.62-19.66,137.921,7.5,83.851,103.3S-62.054,320.66,61.563,320.66Z" transform="matrix(0.26, -0.97, 0.97, 0.26, 54.06, 517.9)" fill="#5b79a4"/>
      </g>
    </g>
  </g>
</svg>
