<svg xmlns="http://www.w3.org/2000/svg" width="44" height="44" viewBox="0 0 44 44">
  <g id="game" transform="translate(-280 -3078)">
    <rect id="Rectangle_46" data-name="Rectangle 46" width="44" height="44" transform="translate(280 3078)" fill="none"/>
    <g id="joystick" transform="translate(281 3030.891)">
      <g id="Group_88" data-name="Group 88" transform="translate(0 55.109)">
        <g id="Group_87" data-name="Group 87" transform="translate(0 0)">
          <path id="Path_176" data-name="Path 176" d="M41.245,73.854A38.52,38.52,0,0,0,40.114,66.4,28.6,28.6,0,0,0,37.8,60.13c-3.6-6.322-7.5-5.346-12.182-4.112a33.48,33.48,0,0,1-4.729.925h-.514a33.48,33.48,0,0,1-4.729-.925c-4.677-1.182-8.584-2.21-12.182,4.163a26.2,26.2,0,0,0-2.313,6.271A38.52,38.52,0,0,0,.023,73.905a14.005,14.005,0,0,0,.72,5.859,3.9,3.9,0,0,0,2.467,2.313,5.025,5.025,0,0,0,3.29-.36,24.159,24.159,0,0,0,6.579-4.677c1.593-1.542,4.575-2.313,7.556-2.313s5.962.771,7.556,2.313a24.159,24.159,0,0,0,6.579,4.677,5.377,5.377,0,0,0,3.29.36,3.841,3.841,0,0,0,2.467-2.364A13.743,13.743,0,0,0,41.245,73.854Zm-2.467,5.14a2.038,2.038,0,0,1-1.234,1.285,3.549,3.549,0,0,1-2.107-.257,20.962,20.962,0,0,1-5.962-4.266c-1.953-1.953-5.4-2.93-8.841-2.93s-6.887.977-8.892,2.827a21.357,21.357,0,0,1-5.962,4.266,3.188,3.188,0,0,1-2.107.257,2.038,2.038,0,0,1-1.234-1.285,12.154,12.154,0,0,1-.514-4.934A35.454,35.454,0,0,1,3,66.863a24.526,24.526,0,0,1,2.159-5.808c2.827-5.089,6.116-4.266,10.023-3.238a30.152,30.152,0,0,0,5.037.977h.771a29.778,29.778,0,0,0,5.089-.977c3.906-.977,7.2-1.85,10.023,3.238a23.7,23.7,0,0,1,2.159,5.808,38.9,38.9,0,0,1,1.079,7.093A11.894,11.894,0,0,1,38.777,78.994Z" transform="translate(0 -55.109)" fill="#222934"/>
        </g>
      </g>
      <g id="Group_90" data-name="Group 90" transform="translate(5.317 60.233)">
        <g id="Group_89" data-name="Group 89" transform="translate(0 0)">
          <path id="Path_177" data-name="Path 177" d="M51.961,98.579a3.123,3.123,0,0,0-1.85-.874,2.925,2.925,0,0,0-.822-1.8l-.051-.051a2.911,2.911,0,0,0-2.107-.874,3.035,3.035,0,0,0-2.107.874,2.988,2.988,0,0,0-.874,1.85,3.062,3.062,0,0,0-1.85.822l-.051.051a2.911,2.911,0,0,0-.874,2.107,3.035,3.035,0,0,0,.874,2.107,2.866,2.866,0,0,0,1.9.874,2.742,2.742,0,0,0,.874,1.85,2.911,2.911,0,0,0,2.107.874,3.035,3.035,0,0,0,2.107-.874,3.123,3.123,0,0,0,.874-1.85,2.742,2.742,0,0,0,1.85-.874,2.911,2.911,0,0,0,.874-2.107A3.035,3.035,0,0,0,51.961,98.579Zm-1.285,2.878a1.046,1.046,0,0,1-.771.308h-.72a.976.976,0,0,0-.977.977v.668a1.079,1.079,0,1,1-2.159,0v-.72a.976.976,0,0,0-.977-.977h-.72a1.054,1.054,0,0,1-.771-1.8l.051-.051a1.228,1.228,0,0,1,.72-.257h.72a.976.976,0,0,0,.977-.977v-.72a1.09,1.09,0,0,1,1.85-.771l.051.051a1.228,1.228,0,0,1,.257.72v.72a.976.976,0,0,0,.977.977h.72a1.09,1.09,0,0,1,.771,1.85Z" transform="translate(-41.373 -94.981)" fill="#222934"/>
        </g>
      </g>
      <g id="Group_92" data-name="Group 92" transform="translate(27.778 60.49)">
        <g id="Group_91" data-name="Group 91">
          <circle id="Ellipse_280" data-name="Ellipse 280" cx="1.799" cy="1.799" r="1.799" fill="#222934"/>
        </g>
      </g>
      <g id="Group_94" data-name="Group 94" transform="translate(27.778 67.789)">
        <g id="Group_93" data-name="Group 93">
          <circle id="Ellipse_281" data-name="Ellipse 281" cx="1.799" cy="1.799" r="1.799" fill="#222934"/>
        </g>
      </g>
      <g id="Group_96" data-name="Group 96" transform="translate(24.129 64.139)">
        <g id="Group_95" data-name="Group 95" transform="translate(0 0)">
          <circle id="Ellipse_282" data-name="Ellipse 282" cx="1.799" cy="1.799" r="1.799" fill="#222934"/>
        </g>
      </g>
      <g id="Group_98" data-name="Group 98" transform="translate(31.427 64.139)">
        <g id="Group_97" data-name="Group 97" transform="translate(0 0)">
          <circle id="Ellipse_283" data-name="Ellipse 283" cx="1.799" cy="1.799" r="1.799" fill="#222934"/>
        </g>
      </g>
    </g>
  </g>
</svg>
