<svg xmlns="http://www.w3.org/2000/svg" width="115.752" height="113.887" viewBox="0 0 115.752 113.887">
  <g id="settings" transform="translate(0 -1)">
    <path id="Path_532" data-name="Path 532" d="M60.879,77.525a16.551,16.551,0,1,1,0-33.095c1.32,0,2.928.325,2.822,2.014-.1,1.613-1.564,1.719-2.822,1.719A12.818,12.818,0,1,0,74.027,60.978a12.415,12.415,0,0,0-1.449-5.856,1.867,1.867,0,1,1,3.3-1.743,16.334,16.334,0,0,1,1.881,7.6A16.735,16.735,0,0,1,60.879,77.525Z" transform="translate(-2.926 -2.889)" fill="#222934"/>
    <path id="Path_533" data-name="Path 533" d="M71.36,51.149a1.86,1.86,0,0,1-1.09-.353,13.489,13.489,0,0,0-1.559-.968,1.867,1.867,0,1,1,1.746-3.3,17.138,17.138,0,0,1,2,1.24,1.882,1.882,0,0,1-1.094,3.381Z" transform="translate(-4.504 -3.014)" fill="#222934"/>
    <path id="Path_534" data-name="Path 534" d="M109.649,28.636l-.066-8.105a1.867,1.867,0,0,0-1.867-1.851H107.7a1.868,1.868,0,0,0-1.852,1.882l.02,2.46C94.659,9.674,76.706,1,59.485,1A57.128,57.128,0,0,0,14.268,22.88,1.867,1.867,0,0,0,17.2,25.186,53.41,53.41,0,0,1,59.485,4.734c16.741,0,34.224,8.743,44.633,22.052H98.993a1.867,1.867,0,0,0,0,3.734h8.789a2.051,2.051,0,0,0,1.867-1.884Z" transform="translate(-0.922)" fill="#222934"/>
    <path id="Path_535" data-name="Path 535" d="M117.015,39.681a1.867,1.867,0,0,0-3.479,1.356,51.827,51.827,0,0,1,3.538,18.9c0,20.472-14.261,40.13-34.581,48.594l1.391-2.128a1.867,1.867,0,0,0-3.126-2.042l-4.453,6.813a1.892,1.892,0,0,0,.809,2.73l7.5,3.308a1.868,1.868,0,0,0,1.507-3.417l-3.192-1.407a62.951,62.951,0,0,0,25.362-18.554c8.189-10.041,12.515-21.761,12.515-33.9a55.555,55.555,0,0,0-3.793-20.254h0Z" transform="translate(-5.056 -2.494)" fill="#222934"/>
    <path id="Path_536" data-name="Path 536" d="M60.777,112.438q-1.1.043-2.215.044c-29.476,0-53.456-23.643-53.456-52.706,0-5.142,2.161-11.572,4.22-17l1.647,3.643a1.868,1.868,0,0,0,3.4-1.537L10.9,37.18a1.894,1.894,0,0,0-2.537-.9l-7.327,3.67A1.866,1.866,0,1,0,2.7,43.286L5.71,41.78C3.58,47.428,1.373,54.123,1.373,59.774c0,31.12,25.655,56.439,57.19,56.439q1.187,0,2.363-.048a1.866,1.866,0,1,0-.148-3.728h0Z" transform="translate(0 -2.334)" fill="#222934"/>
    <path id="Path_537" data-name="Path 537" d="M62.325,96.667c-1.832,0-7.264.021-8.11-.339a4.4,4.4,0,0,1-2.644-3.821V88.788a30.337,30.337,0,0,1-7.992-3.376L40.966,88.02a4.443,4.443,0,0,1-6.014-.158c-.769-.737-3.764-3.795-4.456-4.6a4.448,4.448,0,0,1,.17-5.988L33.3,74.651a29.38,29.38,0,0,1-3.3-8.1H26.316A4.4,4.4,0,0,1,22,62.389c-.059-1.063-.031-5.353,0-6.421a4.393,4.393,0,0,1,4.165-4.314h3.732a30.131,30.131,0,0,1,3.381-7.967l-2.609-2.6a4.426,4.426,0,0,1,.158-6.011c.738-.767,3.8-3.756,4.61-4.446a4.466,4.466,0,0,1,5.991.17l2.634,2.629a29.538,29.538,0,0,1,8.124-3.3V26.31A4.4,4.4,0,0,1,56.349,22c1.065-.059,5.365-.034,6.435,0a4.3,4.3,0,0,1,4.165,4.314v3.719a30.306,30.306,0,0,1,7.992,3.376L77.555,30.8a4.44,4.44,0,0,1,6.014.159c.769.737,3.764,3.794,4.456,4.6a4.447,4.447,0,0,1-.171,5.988l-2.63,2.624a29.379,29.379,0,0,1,3.3,8.1H92.2A4.448,4.448,0,0,1,96.661,56.2c.111,1.1.047,5.554.015,6.653a4.39,4.39,0,0,1-4.165,4.313H88.779A30.163,30.163,0,0,1,85.4,75.129l2.609,2.6a4.426,4.426,0,0,1-.158,6.012c-.738.767-3.8,3.755-4.61,4.445a4.463,4.463,0,0,1-5.991-.169l-2.634-2.629a29.555,29.555,0,0,1-8.124,3.3v3.668a4.38,4.38,0,0,1-4.165,4.313ZM55.3,92.359c.04.19.174.574.584.574h6.289c.191-.04.579-.173.579-.58v-5.2a1.866,1.866,0,0,1,1.561-1.841,25.561,25.561,0,0,0,9.557-3.853,1.868,1.868,0,0,1,2.335.245l3.677,3.67a.708.708,0,0,0,.879.011l4.473-4.315a.681.681,0,0,0,0-.833l-3.542-3.534a1.867,1.867,0,0,1-.221-2.378,26.666,26.666,0,0,0,4-9.417A1.867,1.867,0,0,1,87.3,63.425h5.063c.19-.039.578-.171.578-.578V56.569A.668.668,0,0,0,92.2,56h-5.21a1.866,1.866,0,0,1-1.842-1.56,25.416,25.416,0,0,0-3.86-9.531,1.867,1.867,0,0,1,.246-2.341l3.677-3.67a.7.7,0,0,0,.011-.866L80.9,33.569a.7.7,0,0,0-.847,0l-3.543,3.535a1.865,1.865,0,0,1-2.371.219A26.823,26.823,0,0,0,64.7,33.333,1.867,1.867,0,0,1,63.214,31.5v-5.2a.539.539,0,0,0-.431-.58H56.494c-.191.04-.579.173-.579.58v5.351A1.866,1.866,0,0,1,54.354,33.5,25.571,25.571,0,0,0,44.8,37.351a1.864,1.864,0,0,1-2.334-.245l-3.677-3.669a.711.711,0,0,0-.879-.012l-4.473,4.315a.681.681,0,0,0,0,.833l3.542,3.535a1.867,1.867,0,0,1,.221,2.378,26.681,26.681,0,0,0-4,9.416,1.867,1.867,0,0,1-1.828,1.485H26.31c-.191.041-.579.173-.579.581v6.273c.04.189.174.574.584.574h5.21a1.867,1.867,0,0,1,1.842,1.56,25.417,25.417,0,0,0,3.86,9.532,1.867,1.867,0,0,1-.246,2.341L33.3,79.916a.7.7,0,0,0-.011.867l4.324,4.463a.7.7,0,0,0,.847,0l3.543-3.535a1.866,1.866,0,0,1,2.372-.219,26.788,26.788,0,0,0,9.44,4,1.867,1.867,0,0,1,1.487,1.828v5.048Z" transform="translate(-1.461 -1.394)" fill="#222934"/>
  </g>
</svg>
