<svg xmlns="http://www.w3.org/2000/svg" width="738.782" height="551.111" viewBox="0 0 738.782 551.111">
  <g id="undraw_elements_cipa" transform="translate(0 1)">
    <path id="Path_165" data-name="Path 165" d="M95.465,418.016C116.9,497.6,162.282,567.258,244.706,567.258A149.242,149.242,0,0,0,393.948,418.016c0-82.424-86.876-95.352-149.242-149.242C118.058,159.34,28.894,170.858,95.465,418.016Z" transform="translate(344.834 -100.92)" fill="#f0f9fa"/>
    <ellipse id="Ellipse_257" data-name="Ellipse 257" cx="47.645" cy="47.645" rx="47.645" ry="47.645" transform="translate(348.931 25.224)" fill="#ff6584"/>
    <rect id="Rectangle_100" data-name="Rectangle 100" width="25.224" height="25.224" transform="translate(310.394 6.306)" fill="#ff6584"/>
    <ellipse id="Ellipse_258" data-name="Ellipse 258" cx="119.113" cy="16.204" rx="119.113" ry="16.204" transform="translate(468.607 450.439)" fill="#3f454f"/>
    <rect id="Rectangle_101" data-name="Rectangle 101" width="161.153" height="81.978" transform="translate(393.073 89.685)" fill="#1fa7e0"/>
    <ellipse id="Ellipse_259" data-name="Ellipse 259" cx="55.353" cy="55.353" rx="55.353" ry="55.353" transform="translate(538.811 332.115)" fill="#222934"/>
    <rect id="Rectangle_102" data-name="Rectangle 102" width="16.816" height="30.129" transform="translate(602.572 430.909)" fill="#222934"/>
    <rect id="Rectangle_103" data-name="Rectangle 103" width="16.816" height="30.129" transform="translate(568.94 430.909)" fill="#222934"/>
    <ellipse id="Ellipse_260" data-name="Ellipse 260" cx="14.013" cy="5.255" rx="14.013" ry="5.255" transform="translate(591.361 456.133)" fill="#222934"/>
    <ellipse id="Ellipse_261" data-name="Ellipse 261" cx="14.013" cy="5.255" rx="14.013" ry="5.255" transform="translate(557.729 455.432)" fill="#222934"/>
    <ellipse id="Ellipse_262" data-name="Ellipse 262" cx="18.918" cy="18.918" rx="18.918" ry="18.918" transform="translate(573.844 354.537)" fill="#fff"/>
    <ellipse id="Ellipse_263" data-name="Ellipse 263" cx="6.306" cy="6.306" rx="6.306" ry="6.306" transform="translate(586.456 367.149)" fill="#222934"/>
    <path id="Path_166" data-name="Path 166" d="M282.211,517.2c4.469-20.016-9.818-40.242-31.911-45.175s-43.627,7.294-48.1,27.31,10.173,27.4,32.266,32.332S277.742,537.218,282.211,517.2Z" transform="translate(365.646 -181.211)" fill="#1fa7e0"/>
    <ellipse id="Ellipse_264" data-name="Ellipse 264" cx="55.353" cy="55.353" rx="55.353" ry="55.353" transform="translate(557.729 173.064)" fill="#222934"/>
    <rect id="Rectangle_104" data-name="Rectangle 104" width="16.816" height="30.129" transform="translate(621.49 271.858)" fill="#222934"/>
    <rect id="Rectangle_105" data-name="Rectangle 105" width="16.816" height="30.129" transform="translate(587.858 271.858)" fill="#222934"/>
    <ellipse id="Ellipse_265" data-name="Ellipse 265" cx="14.013" cy="5.255" rx="14.013" ry="5.255" transform="translate(610.279 297.082)" fill="#222934"/>
    <ellipse id="Ellipse_266" data-name="Ellipse 266" cx="14.013" cy="5.255" rx="14.013" ry="5.255" transform="translate(576.647 296.381)" fill="#222934"/>
    <ellipse id="Ellipse_267" data-name="Ellipse 267" cx="18.918" cy="18.918" rx="18.918" ry="18.918" transform="translate(592.762 195.486)" fill="#fff"/>
    <ellipse id="Ellipse_268" data-name="Ellipse 268" cx="6.306" cy="6.306" rx="6.306" ry="6.306" transform="translate(605.374 208.098)" fill="#222934"/>
    <path id="Path_167" data-name="Path 167" d="M255.211,290.2c4.469-20.016-9.818-40.242-31.911-45.175s-43.627,7.294-48.1,27.31,10.173,27.4,32.266,32.332S250.742,310.218,255.211,290.2Z" transform="translate(411.564 -113.262)" fill="#1fa7e0"/>
    <ellipse id="Ellipse_269" data-name="Ellipse 269" cx="27.676" cy="8.688" rx="27.676" ry="8.688" transform="translate(563.685 215.573) rotate(-110.918)" fill="#222934"/>
    <ellipse id="Ellipse_270" data-name="Ellipse 270" cx="8.688" cy="27.676" rx="8.688" ry="27.676" transform="translate(654.143 222.443) rotate(-115.374)" fill="#222934"/>
    <path id="Path_168" data-name="Path 168" d="M272.817,409.066c0,5.418-13.949,16.115-29.428,16.115S213.4,409.93,213.4,404.512s14.513,1.051,29.992,1.051S272.817,403.649,272.817,409.066Z" transform="translate(367.453 -160.681)" fill="#fff"/>
    <rect id="Rectangle_106" data-name="Rectangle 106" width="161.153" height="81.978" transform="translate(377.658 77.774)" fill="none" stroke="#3f454f" stroke-miterlimit="10" stroke-width="2"/>
    <rect id="Rectangle_107" data-name="Rectangle 107" width="25.224" height="25.224" transform="translate(301.986 0)" fill="none" stroke="#3f454f" stroke-miterlimit="10" stroke-width="2"/>
    <path id="Path_169" data-name="Path 169" d="M909.9,541.08c0,57.334,34.084,77.353,76.129,77.353s76.129-20.019,76.129-77.353-76.129-130.271-76.129-130.271S909.9,483.746,909.9,541.08Z" transform="translate(-909.896 -163.213)" fill="#f0f9fa"/>
    <ellipse id="Ellipse_271" data-name="Ellipse 271" cx="26.47" cy="7.843" rx="26.47" ry="7.843" transform="translate(57.842 499.664)" fill="#3f454f"/>
    <ellipse id="Ellipse_272" data-name="Ellipse 272" cx="119.113" cy="16.204" rx="119.113" ry="16.204" transform="translate(83.942 517.702)" fill="#3f454f"/>
    <ellipse id="Ellipse_273" data-name="Ellipse 273" cx="55.353" cy="55.353" rx="55.353" ry="55.353" transform="translate(146.301 395.526)" fill="#222934"/>
    <rect id="Rectangle_108" data-name="Rectangle 108" width="16.816" height="30.129" transform="translate(176.43 494.32)" fill="#2f2e41"/>
    <rect id="Rectangle_109" data-name="Rectangle 109" width="16.816" height="30.129" transform="translate(210.062 494.32)" fill="#222934"/>
    <ellipse id="Ellipse_274" data-name="Ellipse 274" cx="14.013" cy="5.255" rx="14.013" ry="5.255" transform="translate(231.479 539.161) rotate(-150)" fill="#222934"/>
    <ellipse id="Ellipse_275" data-name="Ellipse 275" cx="14.013" cy="5.255" rx="14.013" ry="5.255" transform="translate(198.548 539.161) rotate(-150)" fill="#222934"/>
    <ellipse id="Ellipse_276" data-name="Ellipse 276" cx="18.918" cy="18.918" rx="18.918" ry="18.918" transform="translate(184.137 417.947)" fill="#fff"/>
    <ellipse id="Ellipse_277" data-name="Ellipse 277" cx="6.306" cy="6.306" rx="6.306" ry="6.306" transform="translate(203.192 422.501)" fill="#222934"/>
    <path id="Path_171" data-name="Path 171" d="M801.512,607.7c-4.469-20.016,9.818-40.242,31.911-45.175s43.627,7.294,48.1,27.31-10.173,27.4-32.266,32.332S805.982,627.718,801.512,607.7Z" transform="translate(-653.552 -208.3)" fill="#1fa7e0"/>
    <ellipse id="Ellipse_278" data-name="Ellipse 278" cx="8.688" cy="27.676" rx="8.688" ry="27.676" transform="translate(228.127 450.731) rotate(-113.171)" fill="#222934"/>
    <ellipse id="Ellipse_279" data-name="Ellipse 279" cx="8.688" cy="27.676" rx="8.688" ry="27.676" transform="translate(124.429 487.866) rotate(-113.171)" fill="#222934"/>
    <rect id="Rectangle_110" data-name="Rectangle 110" width="25.224" height="25.224" transform="translate(269.756 398.678)" fill="#ff6584"/>
    <rect id="Rectangle_111" data-name="Rectangle 111" width="25.224" height="25.224" transform="translate(296.381 353.836)" fill="none" stroke="#3f454f" stroke-miterlimit="10" stroke-width="2"/>
    <path id="Path_172" data-name="Path 172" d="M819.2,731.844a12.612,12.612,0,0,0,25.224,0c0-6.965-5.647-8.408-12.612-8.408S819.2,724.879,819.2,731.844Z" transform="translate(-628.621 -256.793)" fill="#fff"/>
    <path id="Path_170" data-name="Path 170" d="M931.351,553.226l-.78-47.984L898.123,445.88l32.326,51.835L930.1,476.14l-22.362-42.948,22.27,37.238h0l-.631-38.8-23.947-34.192,23.848,28.09-.394-71.153,2.475,94.193-.2-3.886L955.5,407.412l-23.956,44.726,2.269,43.338.067-1.15,28.068-39.218L933.966,498.39l.284,5.42.05.081-.023.445,6.007,108.682h-7.69l-1.173-55.522-27.915-43.176Z" transform="translate(-852.449 -106.777)" fill="#222934"/>
  </g>
</svg>
