<svg xmlns="http://www.w3.org/2000/svg" width="125.464" height="118.028" viewBox="0 0 125.464 118.028">
  <g id="windmill_1_" data-name="windmill (1)" transform="translate(0 -12.556)">
    <g id="Group_400" data-name="Group 400" transform="translate(0 12.881)">
      <g id="Group_399" data-name="Group 399">
        <path id="Path_524" data-name="Path 524" d="M85.551,65.4l-32.6-10.007a4.73,4.73,0,0,0-3.487.3c-.152.152-.3.152-.455.3a7.714,7.714,0,0,0-1.971-2.426c0-.152.152-.152.152-.3a5.408,5.408,0,0,0,.758-3.336L42.188,16.427a3.37,3.37,0,0,0-6.671.91l2.729,33.811A6.1,6.1,0,0,0,39.61,54.18,5.229,5.229,0,0,0,38.245,56a1.149,1.149,0,0,0-.606-.3,4.622,4.622,0,0,0-3.487,0L2.16,67.523A3.319,3.319,0,0,0,.189,71.768a3.569,3.569,0,0,0,3.184,2.426,1.923,1.923,0,0,0,.91-.152l32.75-8.794a11.642,11.642,0,0,0,2.426-2.274l.3.3-3.487,65.045H32.029a1.516,1.516,0,1,0,0,3.032h23.2a1.516,1.516,0,0,0,0-3.032H50.982L47.343,63.277l.3-.3a5.262,5.262,0,0,0,2.881,1.819l33.2,7.278h.758a3.55,3.55,0,0,0,3.336-2.578A3.388,3.388,0,0,0,85.551,65.4ZM37.033,61a1.367,1.367,0,0,1-.91.91L3.373,70.707c-.152,0-.3,0-.455-.3a.557.557,0,0,1,.152-.455L34.91,58.122c.152,0,.455-.152.606-.152a1.367,1.367,0,0,1,.758.152,1.733,1.733,0,0,1,1.061,1.213A1.714,1.714,0,0,1,37.033,61Zm9.552-2.578a3.032,3.032,0,1,1-3.032-3.032A3.041,3.041,0,0,1,46.585,58.425ZM38.4,16.882a.326.326,0,0,1,.3-.3c.152,0,.3.152.455.3L44.917,50.39a1.634,1.634,0,0,1-.3,1.213,2.208,2.208,0,0,1-1.365.91,1.947,1.947,0,0,1-1.516-.606,3.048,3.048,0,0,1-.606-1.213Zm9.4,111.441H39.307l3.487-63.529H44.31ZM84.186,69.19l-33.2-7.278a1.755,1.755,0,0,1-1.061-.758,1.867,1.867,0,0,1-.3-1.516,1.7,1.7,0,0,1,1.061-1.213,3.768,3.768,0,0,1,1.213-.152L84.338,68.432c.152,0,.3.3.3.455S84.338,69.19,84.186,69.19Z" transform="translate(0 -13.651)"/>
      </g>
    </g>
    <g id="Group_402" data-name="Group 402" transform="translate(63.25 12.556)">
      <g id="Group_401" data-name="Group 401">
        <path id="Path_525" data-name="Path 525" d="M275,64.023,256.962,45.07a4.516,4.516,0,0,0-2.729-1.213h-.606a5.386,5.386,0,0,0-.3-1.516.557.557,0,0,0,.455-.152,3.85,3.85,0,0,0,2.123-1.971l11.978-23.349a2.983,2.983,0,0,0-1.213-3.942,3.076,3.076,0,0,0-3.942.91l-13.8,22.44a5.192,5.192,0,0,0-.607,2.729,4.267,4.267,0,0,0-3.184,1.516,3.718,3.718,0,0,0-2.426-.91l-26.23-.606a2.851,2.851,0,0,0-2.881,2.729,3.1,3.1,0,0,0,2.578,3.184L242.255,47.8h.455a4.512,4.512,0,0,0,2.274-.758c.152.3.455.455.606.758l-2.881,49.58h-3.032a1.516,1.516,0,0,0,0,3.032h17.891a1.516,1.516,0,0,0,0-3.032h-3.032l-2.578-45.486,18.952,16.375a3.193,3.193,0,0,0,1.971.758,2.994,2.994,0,0,0,2.123-.91A3.03,3.03,0,0,0,275,64.023Zm-31.84-19.559a1.136,1.136,0,0,1-.758.152l-26.079-2.729,26.23.606c.3,0,.455.152.758.3a1.114,1.114,0,0,1,.3.91A.825.825,0,0,1,243.164,44.464Zm5.458-2.426a1.971,1.971,0,1,1-1.971,1.971A1.911,1.911,0,0,1,248.623,42.038Zm-2.881,55.341,2.729-48.215h.455l2.729,48.215Zm6.065-58.07a1.641,1.641,0,0,1-.606-.758c.152-.3.152-.455.3-.758L265.3,15.5,253.323,38.854c-.152.3-.3.455-.606.455A1.738,1.738,0,0,1,251.807,39.309Zm1.516,9.552a1.15,1.15,0,0,1-.3-.606,1.072,1.072,0,0,1,1.213-1.213.788.788,0,0,1,.606.3l18.194,18.649Z" transform="translate(-213.586 -12.556)"/>
      </g>
    </g>
  </g>
</svg>
