<svg xmlns="http://www.w3.org/2000/svg" xmlns:xlink="http://www.w3.org/1999/xlink" width="1213.001" height="1210.279" viewBox="0 0 1213.001 1210.279"><defs><filter id="a" x="18.955" y="0" width="1194.046" height="1210.279" filterUnits="userSpaceOnUse"><feOffset dx="3" dy="3" input="SourceAlpha"/><feGaussianBlur stdDeviation="5" result="b"/><feFlood flood-opacity="0.412"/><feComposite operator="in" in2="b"/><feComposite in="SourceGraphic"/></filter><filter id="c" x="110.546" y="193.793" width="257.777" height="146.207" filterUnits="userSpaceOnUse"><feOffset dx="3" dy="3" input="SourceAlpha"/><feGaussianBlur stdDeviation="5" result="d"/><feFlood flood-opacity="0.412"/><feComposite operator="in" in2="d"/><feComposite in="SourceGraphic"/></filter><filter id="e" x="572.303" y="125.693" width="640.696" height="214.309" filterUnits="userSpaceOnUse"><feOffset dx="3" dy="3" input="SourceAlpha"/><feGaussianBlur stdDeviation="5" result="f"/><feFlood flood-opacity="0.412"/><feComposite operator="in" in2="f"/><feComposite in="SourceGraphic"/></filter><filter id="g" x="639.373" y="239.102" width="573.627" height="100.898" filterUnits="userSpaceOnUse"><feOffset dx="3" dy="3" input="SourceAlpha"/><feGaussianBlur stdDeviation="5" result="h"/><feFlood flood-opacity="0.412"/><feComposite operator="in" in2="h"/><feComposite in="SourceGraphic"/></filter><filter id="i" x="148.652" y="235.854" width="166.905" height="104.146" filterUnits="userSpaceOnUse"><feOffset dx="3" dy="3" input="SourceAlpha"/><feGaussianBlur stdDeviation="5" result="j"/><feFlood flood-opacity="0.412"/><feComposite operator="in" in2="j"/><feComposite in="SourceGraphic"/></filter></defs><g transform="translate(-4142 -20787)"><g transform="translate(-1076 2106)"><rect width="1195" height="311" transform="translate(5218 18693)" fill="#45505e"/></g><g transform="matrix(1, 0, 0, 1, 4142, 20787)" filter="url(#a)"><path d="M1050.75,1491.279h-.027c-4.591,0-9.226-.094-13.776-.279h27.615C1059.932,1491.186,1055.285,1491.279,1050.75,1491.279ZM1195,622,30.955,622a321.2,321.2,0,0,1,17.93-32.2,369.015,369.015,0,0,1,22.161-31.161c7.992-10.114,16.9-20.365,26.469-30.466,9.4-9.92,19.78-20.054,30.855-30.12,10.812-9.829,22.694-19.962,35.317-30.119,12.251-9.86,25.661-20.11,39.857-30.467,26.92-19.642,57.549-40.368,93.639-63.361C335.18,349.9,387,331.413,451.2,319.162c16.37-3.124,33.773-5.87,51.725-8.161H826.607c17.286,1.768,34.764,3.809,51.948,6.067,37.084,4.872,74.025,10.891,109.8,17.892,35.921,7.028,70.892,15.09,103.942,23.96,33.526,9,65.306,18.89,94.456,29.4,2.759.995,5.536,2.01,8.251,3.017V622h0Z" transform="translate(0 -299)" fill="#45505e"/></g><g transform="matrix(1, 0, 0, 1, 4142, 20787)" filter="url(#c)"><path d="M350.324,142.334H122.547A295.4,295.4,0,0,1,143.3,95.895a180.92,180.92,0,0,1,26.819-36.8c21.1-21.873,45.535-32.963,72.614-32.963A113.8,113.8,0,0,1,272.1,30.186a135.5,135.5,0,0,1,21.51,7.647,99.592,99.592,0,0,1,17.137,9.98,82.417,82.417,0,0,1,23.2,25.934c5.255,9.179,9.125,19.709,11.832,32.191A237.919,237.919,0,0,1,350.324,142.334Z" transform="translate(0 179.67)" fill="#475365"/></g><g transform="matrix(1, 0, 0, 1, 4142, 20787)" filter="url(#e)"><path d="M1210,673H599.3a299.869,299.869,0,0,1,29.563-73.307,239.029,239.029,0,0,1,46.386-58.41,198.357,198.357,0,0,1,98.06-49,216.305,216.305,0,0,1,39.582-3.592,247.652,247.652,0,0,1,36.984,2.857,293.484,293.484,0,0,1,39.258,8.843c119.431,35.418,227.385,60.529,320.864,74.633V673Z" transform="translate(-15 -351)" fill="#485a74"/></g><g transform="matrix(1, 0, 0, 1, 4142, 20787)" filter="url(#g)"><path d="M1195,668H651.373a137.913,137.913,0,0,1,8.188-18.959A156.167,156.167,0,0,1,671.169,630.3a63.4,63.4,0,0,1,7.238-8.4,66.684,66.684,0,0,1,8.576-7.032,84.264,84.264,0,0,1,20.939-10.272,135.387,135.387,0,0,1,25.6-5.72,231.331,231.331,0,0,1,29.812-1.772,416.8,416.8,0,0,1,42.806,2.447c14.315,1.477,29.962,3.615,47.836,6.536,33.365,5.452,69.191,12.768,107.12,20.512,7.188,1.468,14.621,2.986,22.073,4.5,68.617,13.919,141.494,27.89,211.828,32.455V668Z" transform="translate(0 -346)" fill="#415065"/></g><g transform="matrix(1, 0, 0, 1, 4142, 20787)" filter="url(#i)"><path d="M297.556,92.534h-136.9A238.557,238.557,0,0,1,178.3,63.287a152.586,152.586,0,0,1,20.377-23.526c15.366-14.183,31.341-21.375,47.482-21.375,10.232,0,19.647,7.21,28.785,22.042a176.043,176.043,0,0,1,11.816,23.609c3.368,7.951,6.8,17.005,10.8,28.494Z" transform="translate(0 229.47)" fill="#52637d"/></g></g></svg>