<svg xmlns="http://www.w3.org/2000/svg" xmlns:xlink="http://www.w3.org/1999/xlink" width="354" height="322" viewBox="0 0 354 322"><defs><filter id="a" x="0" y="0" width="354" height="322" filterUnits="userSpaceOnUse"><feOffset dx="3" dy="3" input="SourceAlpha"/><feGaussianBlur stdDeviation="5" result="b"/><feFlood flood-opacity="0.412"/><feComposite operator="in" in2="b"/><feComposite in="SourceGraphic"/></filter><filter id="c" x="0" y="0" width="354" height="322" filterUnits="userSpaceOnUse"><feOffset dx="3" dy="3" input="SourceAlpha"/><feGaussianBlur stdDeviation="5" result="d"/><feFlood flood-opacity="0.412"/><feComposite operator="in" in2="d"/><feComposite in="SourceGraphic"/></filter><filter id="e" x="0" y="0" width="354" height="322" filterUnits="userSpaceOnUse"><feOffset dx="3" dy="3" input="SourceAlpha"/><feGaussianBlur stdDeviation="5" result="f"/><feFlood flood-opacity="0.412"/><feComposite operator="in" in2="f"/><feComposite in="SourceGraphic"/></filter><filter id="g" x="8.224" y="0" width="345.776" height="322" filterUnits="userSpaceOnUse"><feOffset dx="3" dy="3" input="SourceAlpha"/><feGaussianBlur stdDeviation="5" result="h"/><feFlood flood-opacity="0.412"/><feComposite operator="in" in2="h"/><feComposite in="SourceGraphic"/></filter><filter id="i" x="163.243" y="16.182" width="190.757" height="305.818" filterUnits="userSpaceOnUse"><feOffset dx="3" dy="3" input="SourceAlpha"/><feGaussianBlur stdDeviation="5" result="j"/><feFlood flood-opacity="0.412"/><feComposite operator="in" in2="j"/><feComposite in="SourceGraphic"/></filter></defs><g transform="translate(-6393.969 -17453)"><g transform="matrix(1, 0, 0, 1, 6393.97, 17453)" filter="url(#a)"><path d="M1000,741H676V449h324V741Z" transform="translate(-664 -437)" fill="#45505e"/></g><g transform="matrix(1, 0, 0, 1, 6393.97, 17453)" filter="url(#c)"><path d="M1000,741H676V449h324V741Z" transform="translate(-664 -437)" fill="#475365"/></g><g transform="matrix(1, 0, 0, 1, 6393.97, 17453)" filter="url(#e)"><path d="M1000,741H676V449h324V741Z" transform="translate(-664 -437)" fill="#485a74"/></g><g transform="matrix(1, 0, 0, 1, 6393.97, 17453)" filter="url(#g)"><path d="M1000,741H912.036c-13.955-18.052-36.322-40.234-62.22-65.919-31.727-31.465-67.687-67.129-98.62-105.539-8.033-9.975-15.453-19.813-22.054-29.242-7.136-10.193-13.575-20.278-19.139-29.974a288.531,288.531,0,0,1-15.285-30.5A211.118,211.118,0,0,1,684.224,449H1000V741Z" transform="translate(-664 -437)" fill="#415065"/></g><g transform="matrix(1, 0, 0, 1, 6393.97, 17453)" filter="url(#i)"><path d="M1000,741H944.569c-37.644-45.365-67.683-87.351-87.561-115.134-2.826-3.951-5.5-7.682-7.878-10.988a50.656,50.656,0,0,1-9.719-25.751c-.716-8.785.877-17.989,4.735-27.357,4.311-10.466,11.335-20.923,20.879-31.081a180.063,180.063,0,0,1,34.762-28.227,250.9,250.9,0,0,1,45.905-22.72A288.31,288.31,0,0,1,1000,465.181V741Z" transform="translate(-664 -437)" fill="#435772"/></g></g></svg>