<svg xmlns="http://www.w3.org/2000/svg" width="91.2" height="80.5" viewBox="0 0 91.2 80.5">
  <g id="right-quote-sign_1_" data-name="right-quote-sign (1)" transform="translate(0.001 -57.197)">
    <path id="Pfad_4" data-name="Pfad 4" d="M590.7,57.2H562.264a4.678,4.678,0,0,0-4.677,4.677V90.308a4.678,4.678,0,0,0,4.677,4.677h13.609q-.267,11.168-5.182,17.884-3.872,5.3-11.72,8.774a4.67,4.67,0,0,0-2.32,6.276l3.367,7.109a4.676,4.676,0,0,0,6.089,2.282,52,52,0,0,0,15.686-10.177,39.485,39.485,0,0,0,10.691-17.014q2.89-9.484,2.89-25.89V61.874A4.679,4.679,0,0,0,590.7,57.2Z" transform="translate(-504.177)" fill="#1fa7e0"/>
    <path id="Pfad_5" data-name="Pfad 5" d="M9.917,137.291a52.873,52.873,0,0,0,15.611-10.158,39.276,39.276,0,0,0,10.757-16.949q2.89-9.414,2.89-25.956V61.874A4.678,4.678,0,0,0,34.5,57.2H6.063a4.678,4.678,0,0,0-4.677,4.677V90.308a4.678,4.678,0,0,0,4.677,4.677H19.673q-.267,11.168-5.182,17.884-3.872,5.3-11.72,8.774a4.67,4.67,0,0,0-2.32,6.276l3.358,7.09A4.69,4.69,0,0,0,9.917,137.291Z" transform="translate(0 0)" fill="#1fa7e0"/>
  </g>
</svg>
