<svg xmlns="http://www.w3.org/2000/svg" xmlns:xlink="http://www.w3.org/1999/xlink" width="182.4" height="161" viewBox="0 0 182.4 161">
  <defs>
    <clipPath id="clip-path">
      <rect width="182.4" height="161" fill="none"/>
    </clipPath>
  </defs>
  <g id="Wiederholungsraster_5" data-name="Wiederholungsraster 5" clip-path="url(#clip-path)">
    <g id="Gruppe_12" data-name="Gruppe 12" transform="translate(-564 -2946.5)">
      <g id="right-quote-sign_1_" data-name="right-quote-sign (1)" transform="translate(564.001 2889.303)" opacity="0.05">
        <path id="Pfad_4" data-name="Pfad 4" d="M625.2,57.2H568.329a9.357,9.357,0,0,0-9.354,9.353V123.42a9.357,9.357,0,0,0,9.354,9.353h27.219q-.533,22.336-10.364,35.768-7.745,10.607-23.44,17.547a9.34,9.34,0,0,0-4.639,12.553l6.734,14.217a9.352,9.352,0,0,0,12.178,4.564,103.993,103.993,0,0,0,31.372-20.353q15.6-15.068,21.382-34.028t5.78-51.781V66.55A9.357,9.357,0,0,0,625.2,57.2Z" transform="translate(-452.153)" fill="#242b35"/>
        <path id="Pfad_5" data-name="Pfad 5" d="M19.835,217.385a105.746,105.746,0,0,0,31.222-20.316Q66.8,182,72.57,163.172t5.78-51.912V66.551A9.357,9.357,0,0,0,69,57.2H12.128a9.357,9.357,0,0,0-9.353,9.353V123.42a9.357,9.357,0,0,0,9.353,9.353H39.346q-.533,22.336-10.364,35.768-7.745,10.607-23.44,17.547A9.34,9.34,0,0,0,.9,198.641l6.716,14.18A9.379,9.379,0,0,0,19.835,217.385Z" transform="translate(0 0)" fill="#242b35"/>
      </g>
    </g>
  </g>
</svg>
