<svg id="undraw_good_team_m7uu" xmlns="http://www.w3.org/2000/svg" width="589.245" height="439.624" viewBox="0 0 589.245 439.624">
  <line id="Line_13" data-name="Line 13" x2="76.037" transform="translate(205.912 134.798)" fill="none" stroke="#222934" stroke-miterlimit="10" stroke-width="2"/>
  <ellipse id="Ellipse_217" data-name="Ellipse 217" cx="20.857" cy="6.548" rx="20.857" ry="6.548" transform="matrix(0.357, -0.934, 0.934, 0.357, 95.647, 233.525)" fill="#222934"/>
  <path id="Path_151" data-name="Path 151" d="M962.761,413.638c8.272,61.563-2.992,123.194-60.285,147.192a112.473,112.473,0,0,1-147.193-60.285c-24-57.293,32.625-91.574,60.285-147.192C871.738,240.409,937.072,222.455,962.761,413.638Z" transform="translate(-375.934 -144.711)" fill="#f0f9fa"/>
  <ellipse id="Ellipse_218" data-name="Ellipse 218" cx="89.766" cy="12.212" rx="89.766" ry="12.212" transform="translate(393.916 407.28)" fill="#3f454f"/>
  <rect id="Rectangle_79" data-name="Rectangle 79" width="12.673" height="22.706" transform="translate(428.331 400.626) rotate(-105.453)" fill="#222934"/>
  <ellipse id="Ellipse_219" data-name="Ellipse 219" cx="3.96" cy="10.561" rx="3.96" ry="10.561" transform="translate(417.022 383.48) rotate(-15.453)" fill="#222934"/>
  <ellipse id="Ellipse_220" data-name="Ellipse 220" cx="20.857" cy="6.548" rx="20.857" ry="6.548" transform="translate(478.255 365.309) rotate(-82.281)" fill="#222934"/>
  <circle id="Ellipse_221" data-name="Ellipse 221" cx="41.715" cy="41.715" r="41.715" transform="translate(441.748 342.854)" fill="#222934"/>
  <rect id="Rectangle_80" data-name="Rectangle 80" width="12.673" height="22.706" transform="translate(428.331 393.233) rotate(-105.453)" fill="#222934"/>
  <ellipse id="Ellipse_222" data-name="Ellipse 222" cx="3.96" cy="10.561" rx="3.96" ry="10.561" transform="translate(417.022 376.088) rotate(-15.453)" fill="#222934"/>
  <circle id="Ellipse_223" data-name="Ellipse 223" cx="14.257" cy="14.257" r="14.257" transform="translate(480.159 346.415)" fill="#fff"/>
  <circle id="Ellipse_224" data-name="Ellipse 224" cx="4.752" cy="4.752" r="4.752" transform="translate(494.223 349.622)" fill="#222934"/>
  <path id="Path_152" data-name="Path 152" d="M1030.766,761.126c15.437-.773,27.26-15.212,26.407-32.25s-14.058-30.225-29.5-29.453-17.859,12.891-17.006,29.93S1015.326,761.9,1030.766,761.126Z" transform="translate(-499.129 -347.891)" fill="#1fa7e0"/>
  <path id="Path_153" data-name="Path 153" d="M916.16,711.63a9.5,9.5,0,0,1-1.534-18.947c5.232-.423,6.659,3.73,7.083,8.963S921.392,711.207,916.16,711.63Z" transform="translate(-449.746 -344.711)" fill="#fff"/>
  <path id="Path_154" data-name="Path 154" d="M49.464,338.778H283.117l36.225,17.648,57.718,28.119L414.8,313.887h106.79" transform="translate(-23.345 -148.143)" fill="none" stroke="#222934" stroke-miterlimit="10" stroke-width="2"/>
  <circle id="Ellipse_225" data-name="Ellipse 225" cx="7.226" cy="7.226" r="7.226" transform="translate(110.426 190.801)" fill="#1fa7e0"/>
  <circle id="Ellipse_226" data-name="Ellipse 226" cx="7.226" cy="7.226" r="7.226" transform="translate(177.872 183.408)" fill="#1fa7e0"/>
  <circle id="Ellipse_227" data-name="Ellipse 227" cx="7.226" cy="7.226" r="7.226" transform="translate(288.677 201.073)" fill="#1fa7e0"/>
  <circle id="Ellipse_228" data-name="Ellipse 228" cx="7.226" cy="7.226" r="7.226" transform="translate(444.445 158.518)" fill="#1fa7e0"/>
  <circle id="Ellipse_229" data-name="Ellipse 229" cx="7.226" cy="7.226" r="7.226" transform="translate(368.97 186.62)" fill="#1fa7e0"/>
  <circle id="Ellipse_230" data-name="Ellipse 230" cx="7.792" cy="7.792" r="7.792" transform="translate(217.985 299.231)" fill="none" stroke="#222934" stroke-miterlimit="10" stroke-width="2"/>
  <ellipse id="Ellipse_231" data-name="Ellipse 231" cx="89.766" cy="12.212" rx="89.766" ry="12.212" transform="translate(0 415.2)" fill="#3f454f"/>
  <circle id="Ellipse_232" data-name="Ellipse 232" cx="41.715" cy="41.715" r="41.715" transform="translate(43.196 326.029)" fill="#222934"/>
  <rect id="Rectangle_81" data-name="Rectangle 81" width="12.673" height="22.706" transform="translate(65.902 400.482)" fill="#222934"/>
  <rect id="Rectangle_82" data-name="Rectangle 82" width="12.673" height="22.706" transform="translate(91.247 400.482)" fill="#222934"/>
  <ellipse id="Ellipse_233" data-name="Ellipse 233" cx="10.561" cy="3.96" rx="10.561" ry="3.96" transform="translate(65.902 419.492)" fill="#222934"/>
  <ellipse id="Ellipse_234" data-name="Ellipse 234" cx="10.561" cy="3.96" rx="10.561" ry="3.96" transform="translate(91.247 418.964)" fill="#222934"/>
  <circle id="Ellipse_235" data-name="Ellipse 235" cx="14.257" cy="14.257" r="14.257" transform="translate(71.71 342.926)" fill="#fff"/>
  <circle id="Ellipse_236" data-name="Ellipse 236" cx="4.752" cy="4.752" r="4.752" transform="translate(81.215 352.431)" fill="#222934"/>
  <path id="Path_155" data-name="Path 155" d="M125.664,625.521c-3.368-15.085,7.4-30.327,24.049-34.045s32.878,5.5,36.247,20.582-7.666,20.648-24.317,24.366S129.032,640.605,125.664,625.521Z" transform="translate(-81.218 -296.57)" fill="#1fa7e0"/>
  <circle id="Ellipse_237" data-name="Ellipse 237" cx="41.715" cy="41.715" r="41.715" transform="translate(28.939 206.165)" fill="#222934"/>
  <rect id="Rectangle_83" data-name="Rectangle 83" width="12.673" height="22.706" transform="translate(51.644 280.618)" fill="#222934"/>
  <rect id="Rectangle_84" data-name="Rectangle 84" width="12.673" height="22.706" transform="translate(76.99 280.618)" fill="#222934"/>
  <ellipse id="Ellipse_238" data-name="Ellipse 238" cx="10.561" cy="3.96" rx="10.561" ry="3.96" transform="translate(51.645 299.627)" fill="#222934"/>
  <ellipse id="Ellipse_239" data-name="Ellipse 239" cx="10.561" cy="3.96" rx="10.561" ry="3.96" transform="translate(76.99 299.099)" fill="#222934"/>
  <circle id="Ellipse_240" data-name="Ellipse 240" cx="14.257" cy="14.257" r="14.257" transform="translate(57.453 223.062)" fill="#fff"/>
  <circle id="Ellipse_241" data-name="Ellipse 241" cx="4.752" cy="4.752" r="4.752" transform="translate(66.958 232.567)" fill="#222934"/>
  <path id="Path_156" data-name="Path 156" d="M98.664,398.521c-3.368-15.085,7.4-30.327,24.049-34.045s32.878,5.5,36.247,20.582-7.666,20.648-24.317,24.366S102.032,413.605,98.664,398.521Z" transform="translate(-68.475 -189.435)" fill="#1fa7e0"/>
  <ellipse id="Ellipse_242" data-name="Ellipse 242" cx="6.548" cy="20.857" rx="6.548" ry="20.857" transform="translate(2.018 225.502) rotate(-64.626)" fill="#222934"/>
  <path id="Path_157" data-name="Path 157" d="M137.043,527.131c0,4.083,10.512,12.145,22.178,12.145s22.6-11.494,22.6-15.577-10.937.792-22.6.792S137.043,523.048,137.043,527.131Z" transform="translate(-86.88 -264.201)" fill="#fff"/>
  <rect id="Rectangle_85" data-name="Rectangle 85" width="66.601" height="33.88" transform="translate(441.161 298.188)" fill="#1fa7e0"/>
  <rect id="Rectangle_86" data-name="Rectangle 86" width="66.601" height="33.88" transform="translate(435.949 303.69)" fill="none" stroke="#222934" stroke-miterlimit="10" stroke-width="2"/>
  <rect id="Rectangle_87" data-name="Rectangle 87" width="19.009" height="19.009" transform="translate(119.655 105.079)" fill="#ff6584"/>
  <rect id="Rectangle_88" data-name="Rectangle 88" width="19.009" height="19.009" transform="translate(114.902 98.743)" fill="none" stroke="#222934" stroke-miterlimit="10" stroke-width="2"/>
  <circle id="Ellipse_243" data-name="Ellipse 243" cx="41.715" cy="41.715" r="41.715" transform="translate(436.714 58.332)" fill="#222934"/>
  <rect id="Rectangle_89" data-name="Rectangle 89" width="12.673" height="22.706" transform="translate(507.01 151.216) rotate(169.739)" fill="#222934"/>
  <rect id="Rectangle_90" data-name="Rectangle 90" width="12.673" height="22.706" transform="translate(482.069 155.731) rotate(169.739)" fill="#222934"/>
  <ellipse id="Ellipse_244" data-name="Ellipse 244" cx="10.561" cy="3.96" rx="10.561" ry="3.96" transform="matrix(0.763, -0.646, 0.646, 0.763, 463.043, 163.474)" fill="#222934"/>
  <ellipse id="Ellipse_245" data-name="Ellipse 245" cx="10.561" cy="3.96" rx="10.561" ry="3.96" transform="matrix(0.763, -0.646, 0.646, 0.763, 487.464, 159.054)" fill="#222934"/>
  <circle id="Ellipse_246" data-name="Ellipse 246" cx="14.257" cy="14.257" r="14.257" transform="translate(461.252 75.586)" fill="#fff"/>
  <circle id="Ellipse_247" data-name="Ellipse 247" cx="4.752" cy="4.752" r="4.752" transform="translate(464.897 79.981)" fill="#222934"/>
  <path id="Path_158" data-name="Path 158" d="M955.224,111.105c.627-15.443-12.683-28.524-29.729-29.217s-31.373,11.266-32,26.709,11.222,18.952,28.268,19.645S954.6,126.549,955.224,111.105Z" transform="translate(-443.886 -56.439)" fill="#1fa7e0"/>
  <ellipse id="Ellipse_248" data-name="Ellipse 248" cx="6.548" cy="20.857" rx="6.548" ry="20.857" transform="matrix(0.223, -0.975, 0.975, 0.223, 418.117, 94.17)" fill="#222934"/>
  <ellipse id="Ellipse_249" data-name="Ellipse 249" cx="6.548" cy="20.857" rx="6.548" ry="20.857" transform="matrix(0.223, -0.975, 0.975, 0.223, 500.001, 107.79)" fill="#222934"/>
  <path id="Path_159" data-name="Path 159" d="M952.952,249.892a9.5,9.5,0,1,1-18.705,3.386c-.935-5.165,3.059-6.993,8.224-7.928S952.017,244.726,952.952,249.892Z" transform="translate(-463.066 -133.405)" fill="#fff"/>
  <line id="Line_14" data-name="Line 14" x2="48.051" y2="36.963" transform="translate(376.281 52.276)" fill="none" stroke="#222934" stroke-miterlimit="10" stroke-width="2"/>
  <circle id="Ellipse_250" data-name="Ellipse 250" cx="35.907" cy="35.907" r="35.907" transform="translate(317.669)" fill="#ff6584"/>
  <ellipse id="Ellipse_251" data-name="Ellipse 251" cx="20.857" cy="6.548" rx="20.857" ry="6.548" transform="translate(462.598 375.221) rotate(-82.281)" fill="#222934"/>
  <circle id="Ellipse_252" data-name="Ellipse 252" cx="7.226" cy="7.226" r="7.226" transform="translate(29.109 407.824)" fill="#1fa7e0"/>
  <rect id="Rectangle_91" data-name="Rectangle 91" width="19.009" height="19.009" transform="translate(135.496 406.589)" fill="#ff6584"/>
  <circle id="Ellipse_253" data-name="Ellipse 253" cx="7.226" cy="7.226" r="7.226" transform="translate(128.379 412.048)" fill="#1fa7e0"/>
  <circle id="Ellipse_254" data-name="Ellipse 254" cx="7.226" cy="7.226" r="7.226" transform="translate(236.704 127.436)" fill="#1fa7e0"/>
  <circle id="Ellipse_255" data-name="Ellipse 255" cx="3.451" cy="3.451" r="3.451" transform="translate(380.813 355.219)" fill="#ff6584"/>
  <line id="Line_15" data-name="Line 15" y1="39.292" transform="translate(401.17 376.656)" fill="#3f3d56" stroke="#3f3d56" stroke-miterlimit="10" stroke-width="2"/>
  <circle id="Ellipse_256" data-name="Ellipse 256" cx="5.556" cy="5.556" r="5.556" transform="translate(395.614 371.099)" fill="#222934"/>
  <path id="Path_160" data-name="Path 160" d="M786.528,779.264s-.794-17.073-17.066-15.088" transform="translate(-385.358 -378.391)" fill="#222934"/>
</svg>
