<svg xmlns="http://www.w3.org/2000/svg" xmlns:xlink="http://www.w3.org/1999/xlink" width="303.109" height="261.011" viewBox="0 0 303.109 261.011">
  <defs>
    <filter id="Rectangle_24" x="-217.437" y="0" width="858.459" height="327.001" filterUnits="userSpaceOnUse">
      <feOffset input="SourceAlpha"/>
      <feGaussianBlur stdDeviation="5" result="blur"/>
      <feFlood flood-opacity="0.161"/>
      <feComposite operator="in" in2="blur"/>
      <feComposite in="SourceGraphic"/>
    </filter>
    <filter id="L" x="0" y="0" width="303.109" height="261.011" filterUnits="userSpaceOnUse">
      <feOffset input="SourceAlpha"/>
      <feGaussianBlur stdDeviation="5" result="blur-2"/>
      <feFlood flood-opacity="0.161"/>
      <feComposite operator="in" in2="blur-2"/>
      <feComposite in="SourceGraphic"/>
    </filter>
    <linearGradient id="linear-gradient" x1="0.545" x2="0.474" y2="0.851" gradientUnits="objectBoundingBox">
      <stop offset="0" stop-color="#009bde"/>
      <stop offset="1" stop-color="#0095d4"/>
    </linearGradient>
    <linearGradient id="linear-gradient-2" x1="0.5" x2="0.5" y2="1" gradientUnits="objectBoundingBox">
      <stop offset="0" stop-color="#0095d4"/>
      <stop offset="1" stop-color="#0099db"/>
    </linearGradient>
  </defs>
  <g id="L-2" data-name="L" transform="translate(-221 -2579)">
    <g transform="matrix(1, 0, 0, 1, 221, 2579)" filter="url(#L)">
      <path id="L-3" data-name="L" d="M263.9,228H8.008C.121,228,0,228.039,0,221.282V-3H82V145.12c0,5.295-.167,4.784,4.862,4.784H263.6c10.211,0,9.5-.747,9.5,11.393v57.157c0,9.013.223,9.556-6.181,9.556C266.041,228.01,265.041,228,263.9,228Z" transform="translate(15 18)" fill="#0095d4"/>
    </g>
    <path id="L-4" data-name="L" d="M0,0H269a4,4,0,0,1,4,4V74a4,4,0,0,1-4,4H0a0,0,0,0,1,0,0V0A0,0,0,0,1,0,0Z" transform="translate(236 2747)" fill="url(#linear-gradient)"/>
    <rect id="L-5" data-name="L" width="82" height="148" transform="translate(236 2599)" fill="url(#linear-gradient-2)"/>
  </g>
</svg>
