<svg xmlns="http://www.w3.org/2000/svg" xmlns:xlink="http://www.w3.org/1999/xlink" width="517.333" height="632.334" viewBox="0 0 517.333 632.334"><defs><filter id="a" x="28.662" y="5.334" width="442" height="627" filterUnits="userSpaceOnUse"><feOffset dx="3" dy="3" input="SourceAlpha"/><feGaussianBlur stdDeviation="5" result="b"/><feFlood flood-opacity="0.412"/><feComposite operator="in" in2="b"/><feComposite in="SourceGraphic"/></filter><filter id="c" x="0" y="0" width="517.333" height="614.729" filterUnits="userSpaceOnUse"><feOffset dx="3" dy="3" input="SourceAlpha"/><feGaussianBlur stdDeviation="5" result="d"/><feFlood flood-opacity="0.412"/><feComposite operator="in" in2="d"/><feComposite in="SourceGraphic"/></filter><filter id="e" x="46.727" y="49.803" width="401.434" height="494.262" filterUnits="userSpaceOnUse"><feOffset dx="3" dy="3" input="SourceAlpha"/><feGaussianBlur stdDeviation="5" result="f"/><feFlood flood-opacity="0.412"/><feComposite operator="in" in2="f"/><feComposite in="SourceGraphic"/></filter><filter id="g" x="111.452" y="161.549" width="297.538" height="344.123" filterUnits="userSpaceOnUse"><feOffset dx="3" dy="3" input="SourceAlpha"/><feGaussianBlur stdDeviation="5" result="h"/><feFlood flood-opacity="0.412"/><feComposite operator="in" in2="h"/><feComposite in="SourceGraphic"/></filter><filter id="i" x="144.076" y="222" width="216.353" height="222.332" filterUnits="userSpaceOnUse"><feOffset dx="3" dy="3" input="SourceAlpha"/><feGaussianBlur stdDeviation="5" result="j"/><feFlood flood-opacity="0.412"/><feComposite operator="in" in2="j"/><feComposite in="SourceGraphic"/></filter></defs><g transform="translate(-5434.338 -16390.666)"><g transform="matrix(1, 0, 0, 1, 5434.34, 16390.67)" filter="url(#a)"><path d="M716,597H304V0H716V597Z" transform="translate(-263.34 17.33)" fill="#45505e"/></g><g transform="translate(4479.273 16265.884)"><g transform="matrix(1, 0, 0, 1, 955.06, 124.78)" filter="url(#c)"><path d="M474.7,250.87C383.388,342.187,0,410.557,0,225.868,0,99.116,148.647,132.1,215.16,65.583,472.883-192.14,560.376,165.2,474.7,250.87Z" transform="matrix(-0.26, 0.97, -0.97, -0.26, 473.93, 100.64)" fill="#475365"/></g></g><g transform="translate(4486.84 16210.16)"><g transform="matrix(1, 0, 0, 1, 947.5, 180.51)" filter="url(#e)"><path d="M193.641,406.08c38.631-10.351,60.04-61.913,67.611-117.849,5.878-43.425-26.824-76.993-26.824-157.459C234.428-24.039,52.635-15.662,10.974,26c-50.98,50.98-16.782,165.959,49.683,232.424C104.236,302,152.815,417.02,193.641,406.08Z" transform="matrix(-0.97, -0.26, 0.26, -0.97, 311.76, 522.55)" fill="#52637d"/></g></g><g transform="translate(4337.705 16256.623)"><g transform="matrix(1, 0, 0, 1, 1096.63, 134.04)" filter="url(#g)"><path d="M162.965,270.4c57.7,0,26.962-66.9,26.962-101.871C189.927,1.551,31.3-16.3,5.3,9.7-26.516,41.514,15,74.04,29.422,127.861,51.984,212.063,125.26,270.4,162.965,270.4Z" transform="matrix(-0.97, -0.26, 0.26, -0.97, 314.81, 486.01)" fill="#51688b"/></g></g><g transform="translate(4379.764 16298.008)"><g transform="matrix(1, 0, 0, 1, 1054.57, 92.66)" filter="url(#i)"><path d="M107.59,149.309c76.4,0-36.14-182.037-101.831-144.111-22.4,22.4-3.622,49.9,19.59,73.109C59.1,112.057,39.2,149.309,107.59,149.309Z" transform="matrix(-0.91, -0.41, 0.41, -0.91, 277.77, 424.58)" fill="#5b79a4"/></g></g></g></svg>