<svg xmlns="http://www.w3.org/2000/svg" xmlns:xlink="http://www.w3.org/1999/xlink" width="554.548" height="562.333" viewBox="0 0 554.548 562.333">
  <defs>
    <linearGradient id="linear-gradient" x2="1" y2="1" gradientUnits="objectBoundingBox">
      <stop offset="0" stop-color="#556070"/>
      <stop offset="1" stop-color="#4d5866"/>
    </linearGradient>
    <linearGradient id="linear-gradient-79" x1="0.5" x2="0.5" y2="1" gradientUnits="objectBoundingBox">
      <stop offset="0" stop-color="#1f8ab8"/>
      <stop offset="1" stop-color="#1e84b0"/>
    </linearGradient>
    <linearGradient id="linear-gradient-81" x2="1" y2="1" gradientUnits="objectBoundingBox">
      <stop offset="0" stop-color="#f8f9ff"/>
      <stop offset="0.981" stop-color="#eaebf2"/>
      <stop offset="1" stop-color="#eaebf2"/>
    </linearGradient>
    <linearGradient id="linear-gradient-82" x2="1" y2="1" gradientUnits="objectBoundingBox">
      <stop offset="0" stop-color="#bcd1d9"/>
      <stop offset="1" stop-color="#b5c9d1"/>
    </linearGradient>
    <linearGradient id="linear-gradient-84" x2="1" y2="1" gradientUnits="objectBoundingBox">
      <stop offset="0" stop-color="#208ebd"/>
      <stop offset="1" stop-color="#1e89b5"/>
    </linearGradient>
    <linearGradient id="linear-gradient-88" x2="1" y2="1" gradientUnits="objectBoundingBox">
      <stop offset="0" stop-color="#208ebd"/>
      <stop offset="1" stop-color="#1f8ab8"/>
    </linearGradient>
  </defs>
  <g id="undraw_file_analysis_8k9b_1_" data-name="undraw_file_analysis_8k9b (1)" transform="translate(-44.695 -0.001)">
    <g id="circ" transform="translate(83.138 0.001)">
      <circle id="Ellipse_110" data-name="Ellipse 110" cx="7.89" cy="7.89" r="7.89" fill="url(#linear-gradient)"/>
      <circle id="Ellipse_111" data-name="Ellipse 111" cx="7.89" cy="7.89" r="7.89" transform="translate(39.941)" fill="url(#linear-gradient)"/>
      <circle id="Ellipse_112" data-name="Ellipse 112" cx="7.89" cy="7.89" r="7.89" transform="translate(79.881)" fill="url(#linear-gradient)"/>
      <circle id="Ellipse_113" data-name="Ellipse 113" cx="7.89" cy="7.89" r="7.89" transform="translate(119.822)" fill="url(#linear-gradient)"/>
      <circle id="Ellipse_114" data-name="Ellipse 114" cx="7.89" cy="7.89" r="7.89" transform="translate(159.762)" fill="url(#linear-gradient)"/>
      <circle id="Ellipse_115" data-name="Ellipse 115" cx="7.89" cy="7.89" r="7.89" transform="translate(199.703)" fill="url(#linear-gradient)"/>
      <circle id="Ellipse_116" data-name="Ellipse 116" cx="7.89" cy="7.89" r="7.89" transform="translate(239.643)" fill="url(#linear-gradient)"/>
      <circle id="Ellipse_117" data-name="Ellipse 117" cx="7.89" cy="7.89" r="7.89" transform="translate(279.584)" fill="url(#linear-gradient)"/>
      <circle id="Ellipse_120" data-name="Ellipse 120" cx="7.89" cy="7.89" r="7.89" transform="translate(0 40.442)" fill="url(#linear-gradient)"/>
      <circle id="Ellipse_122" data-name="Ellipse 122" cx="7.89" cy="7.89" r="7.89" transform="translate(79.881 40.442)" fill="url(#linear-gradient)"/>
      <circle id="Ellipse_123" data-name="Ellipse 123" cx="7.89" cy="7.89" r="7.89" transform="translate(119.822 40.442)" fill="url(#linear-gradient)"/>
      <circle id="Ellipse_124" data-name="Ellipse 124" cx="7.89" cy="7.89" r="7.89" transform="translate(159.762 40.442)" fill="url(#linear-gradient)"/>
      <circle id="Ellipse_125" data-name="Ellipse 125" cx="7.89" cy="7.89" r="7.89" transform="translate(199.703 40.442)" fill="url(#linear-gradient)"/>
      <circle id="Ellipse_126" data-name="Ellipse 126" cx="7.89" cy="7.89" r="7.89" transform="translate(239.643 40.442)" fill="url(#linear-gradient)"/>
      <circle id="Ellipse_127" data-name="Ellipse 127" cx="7.89" cy="7.89" r="7.89" transform="translate(279.584 40.442)" fill="url(#linear-gradient)"/>
      <circle id="Ellipse_130" data-name="Ellipse 130" cx="7.89" cy="7.89" r="7.89" transform="translate(0 80.884)" fill="url(#linear-gradient)"/>
      <circle id="Ellipse_131" data-name="Ellipse 131" cx="7.89" cy="7.89" r="7.89" transform="translate(39.941 80.884)" fill="url(#linear-gradient)"/>
      <circle id="Ellipse_132" data-name="Ellipse 132" cx="7.89" cy="7.89" r="7.89" transform="translate(79.881 80.884)" fill="url(#linear-gradient)"/>
      <circle id="Ellipse_133" data-name="Ellipse 133" cx="7.89" cy="7.89" r="7.89" transform="translate(119.822 80.884)" fill="url(#linear-gradient)"/>
      <circle id="Ellipse_134" data-name="Ellipse 134" cx="7.89" cy="7.89" r="7.89" transform="translate(159.762 80.884)" fill="url(#linear-gradient)"/>
      <circle id="Ellipse_135" data-name="Ellipse 135" cx="7.89" cy="7.89" r="7.89" transform="translate(199.703 80.884)" fill="url(#linear-gradient)"/>
      <circle id="Ellipse_136" data-name="Ellipse 136" cx="7.89" cy="7.89" r="7.89" transform="translate(239.643 80.884)" fill="url(#linear-gradient)"/>
      <circle id="Ellipse_137" data-name="Ellipse 137" cx="7.89" cy="7.89" r="7.89" transform="translate(279.584 80.884)" fill="url(#linear-gradient)"/>
      <circle id="Ellipse_140" data-name="Ellipse 140" cx="7.89" cy="7.89" r="7.89" transform="translate(0 121.326)" fill="url(#linear-gradient)"/>
      <circle id="Ellipse_141" data-name="Ellipse 141" cx="7.89" cy="7.89" r="7.89" transform="translate(39.941 121.326)" fill="url(#linear-gradient)"/>
      <circle id="Ellipse_142" data-name="Ellipse 142" cx="7.89" cy="7.89" r="7.89" transform="translate(79.881 121.326)" fill="url(#linear-gradient)"/>
      <circle id="Ellipse_143" data-name="Ellipse 143" cx="7.89" cy="7.89" r="7.89" transform="translate(119.822 121.326)" fill="url(#linear-gradient)"/>
      <circle id="Ellipse_144" data-name="Ellipse 144" cx="7.89" cy="7.89" r="7.89" transform="translate(159.762 121.326)" fill="url(#linear-gradient)"/>
      <circle id="Ellipse_145" data-name="Ellipse 145" cx="7.89" cy="7.89" r="7.89" transform="translate(199.703 121.326)" fill="url(#linear-gradient)"/>
      <circle id="Ellipse_146" data-name="Ellipse 146" cx="7.89" cy="7.89" r="7.89" transform="translate(239.643 121.326)" fill="url(#linear-gradient)"/>
      <circle id="Ellipse_147" data-name="Ellipse 147" cx="7.89" cy="7.89" r="7.89" transform="translate(279.584 121.326)" fill="url(#linear-gradient)"/>
      <circle id="Ellipse_150" data-name="Ellipse 150" cx="7.89" cy="7.89" r="7.89" transform="translate(0 161.768)" fill="url(#linear-gradient)"/>
      <circle id="Ellipse_151" data-name="Ellipse 151" cx="7.89" cy="7.89" r="7.89" transform="translate(39.941 161.768)" fill="url(#linear-gradient)"/>
      <circle id="Ellipse_152" data-name="Ellipse 152" cx="7.89" cy="7.89" r="7.89" transform="translate(79.881 161.768)" fill="url(#linear-gradient)"/>
      <circle id="Ellipse_153" data-name="Ellipse 153" cx="7.89" cy="7.89" r="7.89" transform="translate(119.822 161.768)" fill="url(#linear-gradient)"/>
      <circle id="Ellipse_154" data-name="Ellipse 154" cx="7.89" cy="7.89" r="7.89" transform="translate(159.762 161.768)" fill="url(#linear-gradient)"/>
      <circle id="Ellipse_155" data-name="Ellipse 155" cx="7.89" cy="7.89" r="7.89" transform="translate(199.703 161.768)" fill="url(#linear-gradient)"/>
      <circle id="Ellipse_156" data-name="Ellipse 156" cx="7.89" cy="7.89" r="7.89" transform="translate(239.643 161.768)" fill="url(#linear-gradient)"/>
      <circle id="Ellipse_157" data-name="Ellipse 157" cx="7.89" cy="7.89" r="7.89" transform="translate(279.584 161.768)" fill="url(#linear-gradient)"/>
      <circle id="Ellipse_160" data-name="Ellipse 160" cx="7.89" cy="7.89" r="7.89" transform="translate(0 202.21)" fill="url(#linear-gradient)"/>
      <circle id="Ellipse_161" data-name="Ellipse 161" cx="7.89" cy="7.89" r="7.89" transform="translate(39.941 202.21)" fill="url(#linear-gradient)"/>
      <circle id="Ellipse_162" data-name="Ellipse 162" cx="7.89" cy="7.89" r="7.89" transform="translate(79.881 202.21)" fill="url(#linear-gradient)"/>
      <circle id="Ellipse_163" data-name="Ellipse 163" cx="7.89" cy="7.89" r="7.89" transform="translate(119.822 202.21)" fill="url(#linear-gradient)"/>
      <circle id="Ellipse_164" data-name="Ellipse 164" cx="7.89" cy="7.89" r="7.89" transform="translate(159.762 202.21)" fill="url(#linear-gradient)"/>
      <circle id="Ellipse_165" data-name="Ellipse 165" cx="7.89" cy="7.89" r="7.89" transform="translate(199.703 202.21)" fill="url(#linear-gradient)"/>
      <circle id="Ellipse_166" data-name="Ellipse 166" cx="7.89" cy="7.89" r="7.89" transform="translate(239.643 202.21)" fill="url(#linear-gradient)"/>
      <circle id="Ellipse_167" data-name="Ellipse 167" cx="7.89" cy="7.89" r="7.89" transform="translate(279.584 202.21)" fill="url(#linear-gradient)"/>
      <circle id="Ellipse_171" data-name="Ellipse 171" cx="7.89" cy="7.89" r="7.89" transform="translate(39.941 242.652)" fill="url(#linear-gradient)"/>
      <circle id="Ellipse_172" data-name="Ellipse 172" cx="7.89" cy="7.89" r="7.89" transform="translate(79.881 242.652)" fill="url(#linear-gradient)"/>
      <circle id="Ellipse_173" data-name="Ellipse 173" cx="7.89" cy="7.89" r="7.89" transform="translate(119.822 242.652)" fill="url(#linear-gradient)"/>
      <circle id="Ellipse_174" data-name="Ellipse 174" cx="7.89" cy="7.89" r="7.89" transform="translate(159.762 242.652)" fill="url(#linear-gradient)"/>
      <circle id="Ellipse_175" data-name="Ellipse 175" cx="7.89" cy="7.89" r="7.89" transform="translate(199.703 242.652)" fill="url(#linear-gradient)"/>
      <circle id="Ellipse_176" data-name="Ellipse 176" cx="7.89" cy="7.89" r="7.89" transform="translate(239.643 242.652)" fill="url(#linear-gradient)"/>
      <circle id="Ellipse_177" data-name="Ellipse 177" cx="7.89" cy="7.89" r="7.89" transform="translate(279.584 242.652)" fill="url(#linear-gradient)"/>
      <circle id="Ellipse_180" data-name="Ellipse 180" cx="7.89" cy="7.89" r="7.89" transform="translate(0 283.094)" fill="url(#linear-gradient)"/>
      <circle id="Ellipse_181" data-name="Ellipse 181" cx="7.89" cy="7.89" r="7.89" transform="translate(39.941 283.094)" fill="url(#linear-gradient)"/>
      <circle id="Ellipse_182" data-name="Ellipse 182" cx="7.89" cy="7.89" r="7.89" transform="translate(79.881 283.094)" fill="url(#linear-gradient)"/>
      <circle id="Ellipse_183" data-name="Ellipse 183" cx="7.89" cy="7.89" r="7.89" transform="translate(119.822 283.094)" fill="url(#linear-gradient)"/>
      <circle id="Ellipse_184" data-name="Ellipse 184" cx="7.89" cy="7.89" r="7.89" transform="translate(159.762 283.094)" fill="url(#linear-gradient)"/>
      <circle id="Ellipse_185" data-name="Ellipse 185" cx="7.89" cy="7.89" r="7.89" transform="translate(199.703 283.094)" fill="url(#linear-gradient)"/>
      <circle id="Ellipse_186" data-name="Ellipse 186" cx="7.89" cy="7.89" r="7.89" transform="translate(239.643 283.094)" fill="url(#linear-gradient)"/>
      <circle id="Ellipse_187" data-name="Ellipse 187" cx="7.89" cy="7.89" r="7.89" transform="translate(279.584 283.094)" fill="url(#linear-gradient)"/>
      <circle id="Ellipse_190" data-name="Ellipse 190" cx="7.89" cy="7.89" r="7.89" transform="translate(0 323.535)" fill="url(#linear-gradient)"/>
      <circle id="Ellipse_191" data-name="Ellipse 191" cx="7.89" cy="7.89" r="7.89" transform="translate(39.941 323.535)" fill="url(#linear-gradient)"/>
      <circle id="Ellipse_192" data-name="Ellipse 192" cx="7.89" cy="7.89" r="7.89" transform="translate(79.881 323.535)" fill="url(#linear-gradient)"/>
      <circle id="Ellipse_193" data-name="Ellipse 193" cx="7.89" cy="7.89" r="7.89" transform="translate(119.822 323.535)" fill="url(#linear-gradient)"/>
      <circle id="Ellipse_194" data-name="Ellipse 194" cx="7.89" cy="7.89" r="7.89" transform="translate(159.762 323.535)" fill="url(#linear-gradient)"/>
      <circle id="Ellipse_195" data-name="Ellipse 195" cx="7.89" cy="7.89" r="7.89" transform="translate(199.703 323.535)" fill="url(#linear-gradient)"/>
      <circle id="Ellipse_196" data-name="Ellipse 196" cx="7.89" cy="7.89" r="7.89" transform="translate(239.643 323.535)" fill="url(#linear-gradient)"/>
      <circle id="Ellipse_197" data-name="Ellipse 197" cx="7.89" cy="7.89" r="7.89" transform="translate(279.584 323.535)" fill="url(#linear-gradient)"/>
      <circle id="Ellipse_200" data-name="Ellipse 200" cx="7.89" cy="7.89" r="7.89" transform="translate(0 363.977)" fill="url(#linear-gradient)"/>
      <circle id="Ellipse_201" data-name="Ellipse 201" cx="7.89" cy="7.89" r="7.89" transform="translate(39.941 363.977)" fill="url(#linear-gradient)"/>
      <circle id="Ellipse_202" data-name="Ellipse 202" cx="7.89" cy="7.89" r="7.89" transform="translate(79.881 363.977)" fill="url(#linear-gradient)"/>
      <circle id="Ellipse_203" data-name="Ellipse 203" cx="7.89" cy="7.89" r="7.89" transform="translate(119.822 363.977)" fill="url(#linear-gradient)"/>
      <circle id="Ellipse_204" data-name="Ellipse 204" cx="7.89" cy="7.89" r="7.89" transform="translate(159.762 363.977)" fill="url(#linear-gradient)"/>
      <circle id="Ellipse_205" data-name="Ellipse 205" cx="7.89" cy="7.89" r="7.89" transform="translate(199.703 363.977)" fill="url(#linear-gradient)"/>
      <circle id="Ellipse_206" data-name="Ellipse 206" cx="7.89" cy="7.89" r="7.89" transform="translate(239.643 363.977)" fill="url(#linear-gradient)"/>
      <circle id="Ellipse_207" data-name="Ellipse 207" cx="7.89" cy="7.89" r="7.89" transform="translate(279.584 363.977)" fill="url(#linear-gradient)"/>
    </g>
    <g id="imp" transform="translate(83.138 40.443)">
      <circle id="IMP-2" data-name="IMP" cx="7.89" cy="7.89" r="7.89" transform="translate(39.941)" fill="url(#linear-gradient-79)"/>
      <circle id="IMP-3" data-name="IMP" cx="7.89" cy="7.89" r="7.89" transform="translate(0 202.21)" fill="url(#linear-gradient-79)"/>
    </g>
    <path id="Path_45" data-name="Path 45" d="M649.647,193.831a9.976,9.976,0,0,1,9.976,9.976V602.828a9.976,9.976,0,0,1-9.976,9.976H363.35a9.975,9.975,0,0,1-9.976-9.976V203.806a9.976,9.976,0,0,1,9.976-9.976h286.3" transform="translate(-182.696 -123.314)" fill="#5e6b7f"/>
    <rect id="Rectangle_25" data-name="Rectangle 25" width="294.254" height="407.143" rx="7" transform="translate(176.885 76.837)" fill="url(#linear-gradient-81)"/>
    <path id="Path_47" data-name="Path 47" d="M575.434,257.643a2,2,0,0,1,2,2v3.99a2,2,0,0,1-1.995,2H417.82a2,2,0,0,1-2-2v-3.99a2,2,0,0,1,2-2H575.434" transform="translate(-172.824 -113.228)" fill="url(#linear-gradient-82)"/>
    <path id="Path_48" data-name="Path 48" d="M575.434,274.009a2,2,0,0,1,2,2v3.99a2,2,0,0,1-1.995,2H417.82a2,2,0,0,1-2-2V276a2,2,0,0,1,2-2H575.434" transform="translate(-172.824 -110.641)" fill="url(#linear-gradient-82)"/>
    <path id="Path_49" data-name="Path 49" d="M575.434,290.376a2,2,0,0,1,2,2v3.99a2,2,0,0,1-2,2H417.82a2,2,0,0,1-2-2v-3.99a2,2,0,0,1,2-2H575.434" transform="translate(-172.824 -108.054)" fill="url(#linear-gradient-84)"/>
    <path id="Path_50" data-name="Path 50" d="M575.434,307.1a2,2,0,0,1,2,2v3.99a2,2,0,0,1-1.995,2H417.82a2,2,0,0,1-2-2V309.1a2,2,0,0,1,2-2H575.434" transform="translate(-172.824 -105.41)" fill="url(#linear-gradient-82)"/>
    <path id="Path_51" data-name="Path 51" d="M575.434,323.467a2,2,0,0,1,2,2v3.99a2,2,0,0,1-1.995,2H417.82a2,2,0,0,1-2-2v-3.99a2,2,0,0,1,2-2H575.434" transform="translate(-172.824 -102.823)" fill="url(#linear-gradient-82)"/>
    <path id="Path_52" data-name="Path 52" d="M575.434,339.834a2,2,0,0,1,1.995,2v3.99a2,2,0,0,1-1.995,2H417.82a2,2,0,0,1-2-2v-3.99a2,2,0,0,1,2-2H575.434" transform="translate(-172.824 -100.236)" fill="url(#linear-gradient-82)"/>
    <path id="Path_53" data-name="Path 53" d="M418.733,394.89a2.318,2.318,0,0,0-2.316,2.316v107.6a2.319,2.319,0,0,0,2.316,2.316H574.065a2.319,2.319,0,0,0,2.316-2.316v-107.6a2.318,2.318,0,0,0-2.316-2.316Z" transform="translate(-172.731 -91.534)" fill="url(#linear-gradient-88)"/>
    <g id="Group_18" data-name="Group 18">
      <circle id="IMP-4" data-name="IMP" cx="6.746" cy="6.746" r="6.746" transform="translate(574.789 46.467)" fill="url(#linear-gradient-79)"/>
      <path id="Path_54" data-name="Path 54" d="M276.838,175.186,311.081,46.7c.318-1.186.748-1.476,2.056-1.476H517.813v1.687H313.833c-.989,0-1.2.322-1.455,1.259L278.667,175.186Z" transform="translate(46.857 7.148)" fill="#707d8e"/>
      <path id="Path_55" data-name="Path 55" d="M710.57,199.013a17.708,17.708,0,1,1,17.708-17.708,17.708,17.708,0,0,1-17.708,17.708Zm0-33.729a16.021,16.021,0,1,0,16.021,16.021,16.021,16.021,0,0,0-16.021-16.021Z" transform="translate(-129.035 -128.093)" fill="#707d8e"/>
    </g>
    <g id="Group_19" data-name="Group 19" transform="translate(44.695 415.504)">
      <ellipse id="IMP-5" data-name="IMP" cx="6.746" cy="6.746" rx="6.746" ry="6.746" transform="translate(10.962 122.376)" fill="url(#linear-gradient-79)"/>
      <path id="Path_54-2" data-name="Path 54" d="M517.813,45.221,483.57,173.711c-.318,1.186-.748,1.476-2.056,1.476H276.838V173.5h203.98c.989,0,1.2-.322,1.455-1.259L515.984,45.221Z" transform="translate(-242.265 -45.221)" fill="#707d8e"/>
      <path id="Path_55-2" data-name="Path 55" d="M710.57,163.6a17.708,17.708,0,1,1-17.708,17.708A17.708,17.708,0,0,1,710.57,163.6Zm0,33.729a16.021,16.021,0,1,0-16.021-16.021,16.021,16.021,0,0,0,16.021,16.021Z" transform="translate(-692.862 -52.183)" fill="#707d8e"/>
    </g>
  </g>
</svg>
